<?xml version="1.0" encoding="utf-8"?>
<!-- Generator: Adobe Illustrator 25.4.1, SVG Export Plug-In . SVG Version: 6.00 Build 0)  -->
<svg version="1.1" id="Layer_1" xmlns="http://www.w3.org/2000/svg" xmlns:xlink="http://www.w3.org/1999/xlink" x="0px" y="0px"
	 viewBox="0 0 140 70" style="enable-background:new 0 0 140 70;" xml:space="preserve">
<style type="text/css">
	.st0{fill:#353535;}
	.st1{fill:#FFFFFF;}
</style>
<g>
	<g>
		<path class="st0" d="M52.1,28.9c-2.5,0-4.5-0.7-6-2.2c-1.6-1.5-2.5-3.6-2.5-6c0-2.4,1-4.6,2.9-6.2c1.7-1.4,3.7-2.2,6.1-2.2
			c2.2,0,4,0.6,5.6,1.8c1.9,1.5,2.9,3.6,2.9,6.1c0,2.5-1,4.8-2.7,6.4C56.7,28.1,54.5,28.9,52.1,28.9z"/>
		<path class="st0" d="M98.4,28.9c-2.5,0-4.5-0.7-6-2.2c-1.6-1.5-2.5-3.6-2.5-6c0-2.4,1-4.6,2.9-6.2c1.7-1.4,3.8-2.2,6.1-2.2
			c2.2,0,4,0.6,5.6,1.8c1.9,1.5,2.9,3.6,2.9,6.1c0,2.5-1,4.8-2.7,6.4C103,28.1,100.9,28.9,98.4,28.9z"/>
		<path class="st0" d="M24.7,69.1c-3.2,0-5.8-1.4-7.5-3.8c-1.3-1.9-1.9-4.3-1.9-7.2c0-3.2,0.7-6.9,2.1-11c1.2-3.5,3-7.3,5.4-11.4
			c0-3.2,0-5.4-0.1-6.7c-0.1-2.5,1-4.8,3.1-6.2c1.5-1.1,3.3-1.6,5.4-1.6c1.3,0,2.4,0.3,3.4,0.8c1.1-0.4,2.3-0.6,3.6-0.6
			c2.7,0,5.1,1,6.9,2.9c0.3-0.4,0.7-0.8,1.1-1.2c1.3-1.1,3.1-1.6,5.1-1.6c2.9,0,4.8,1.1,6,2.7c0.2-0.2,0.5-0.4,0.8-0.5
			c2.2-1.4,4.6-2.2,7.1-2.2c1.2,0,2.3,0.2,3.2,0.5c0.9-4.9,2.4-9,4.2-12.5c3.3-6,7.5-7.3,10.5-7.3c2.9,0,5.4,1.3,7.2,3.7
			c1.4,1.9,2.1,4.4,2.1,7.2c0,3-0.7,6.1-2.2,9.3c0.7,0.3,1.3,0.7,1.9,1.1c0.1-0.1,0.3-0.3,0.4-0.4c1.3-1.1,3.1-1.6,5.1-1.6
			c0.9,0,1.7,0.1,2.5,0.3c0.3-0.1,0.7-0.3,1-0.4c0.4-1.8,1-3.5,1.6-5.2c1.2-3.1,2.7-5.6,4.4-7.5c2.3-2.5,5.1-3.8,8.1-3.8
			c2.8,0,5.4,1.4,7,3.8c1.2,1.8,1.8,4.1,1.8,6.6c0,2.6-0.5,5.1-1.5,7.5c0.1,0.1,0.2,0.1,0.2,0.2c0.8,0.8,1.8,2.3,1.8,4.7
			c0,2.8-1.4,5.8-5,7.1c1.2,0.5,2.2,1.5,2.9,2.7c0.6,1.1,0.9,2.4,0.9,3.8c0,1.2-0.2,2.3-0.7,3.5c-0.5,1.3-1.3,2.3-2.4,3.2
			c-2.3,1.9-5,2.9-8,2.9c-2.8,0-5.2-0.8-7.2-2.4c-2.2,1.6-4.5,2.4-6.9,2.4c-1.9,0-3.6-0.4-5-1.2c-1.7,0.8-3.6,1.2-5.6,1.2
			c-2.8,0-5.2-0.7-7.2-2.1c-1.3,1.4-3.2,2.1-5.4,2.1c-1.6,0-3-0.4-4.2-1.2c-2.1,0.8-4.1,1.2-6.1,1.2c-2.7,0-5-0.6-7-1.7
			c-1.9,1.1-3.8,1.7-5.8,1.7c-1.9,0-3.6-0.4-5.1-1.3c-1.8,0.8-3.7,1.3-5.8,1.3c-1.3,0-2.5-0.2-3.6-0.7c-0.5,4-1.2,7.5-2.3,10.4
			C32.3,68,27.4,69.1,24.7,69.1z"/>
		<path class="st0" d="M24.7,66.6c-2.9,0-4.6-1.5-5.4-2.7c-1-1.5-1.5-3.4-1.5-5.8c0-2.9,0.7-6.3,2-10.1c1.2-3.5,3.1-7.4,5.5-11.6
			c0-3.5,0-6-0.1-7.5c-0.1-1.6,0.7-3.1,2-4c1.1-0.8,2.4-1.2,3.9-1.2c1.2,0,2.2,0.3,2.9,1c0.1,0,0.1,0.1,0.2,0.2c1.2-0.7,2.5-1,3.8-1
			c2.3,0,4.3,1,5.7,2.8c0.7,0.9,1.3,2,1.6,3.2c0.2-0.6,0.3-1.2,0.5-1.8c0.4-1.4,1-2.4,1.8-3.1c0.9-0.7,2-1,3.5-1
			c3.4,0,4.6,2.1,4.6,3.9c0,0.3,0,0.7-0.1,1.5c1-1.5,2.2-2.8,3.6-3.7c1.8-1.2,3.7-1.8,5.7-1.8c2.6,0,4.2,1,5.1,1.9
			c0.2-1,0.3-2.1,0.5-3.1c0.9-4.8,2.3-8.9,4.1-12.2c2.1-3.9,4.9-5.9,8.2-5.9c2.1,0,3.8,0.9,5.1,2.7c1.1,1.5,1.6,3.4,1.6,5.7
			c0,3.2-0.9,6.4-2.7,9.7c-0.2,0.4-0.4,0.8-0.7,1.2c2,0.1,3.7,0.8,4.9,2.2c0.4,0.5,0.8,1,1.1,1.5c0.4-1.2,1-2.1,1.7-2.7
			c0.9-0.7,2-1,3.6-1c1.1,0,2,0.2,2.7,0.6c0.8-0.6,1.8-0.9,2.7-0.9h0.2c0.5-2.3,1.1-4.5,1.9-6.6c1.1-2.8,2.4-5,3.9-6.7
			c1.8-2,3.9-3,6.2-3c2,0,3.7,1,4.8,2.7c0.9,1.4,1.4,3.2,1.4,5.2c0,3.1-0.8,5.9-2.4,8.5c0.9,0.2,1.5,0.6,1.8,1c0.7,0.7,1,1.6,1,2.9
			c0,1.6-0.7,5.4-7.2,5.4h-2.5c0,0.2,0,0.4,0,0.6c0,1.8,0.1,3.2,0.3,4.1c0.1,0.6,0.2,0.9,0.3,1c0,0,0.1,0,0.2,0c0,0,0.2,0,0.5-0.2
			c0.4-0.2,0.7-0.4,1-0.6c0.9-0.9,1.9-1,2.6-1c1.3,0,2.4,0.7,3,1.9c0.4,0.8,0.6,1.6,0.6,2.6c0,0.8-0.2,1.7-0.5,2.5
			c-0.4,0.9-0.9,1.6-1.7,2.2c-1.9,1.5-4,2.3-6.4,2.3c-3,0-5.3-1.1-7-3.2c-2.4,2.2-4.7,3.2-7.1,3.2c-2.3,0-3.8-0.8-4.9-1.7
			c-1.7,1.1-3.6,1.7-5.8,1.7c-2.8,0-5-0.8-6.8-2.5c-0.3-0.3-0.7-0.7-0.9-1c-0.3,0.8-0.7,1.5-1.1,2c-0.6,0.7-1.8,1.5-3.8,1.5
			c-1.5,0-2.8-0.6-3.7-1.7c-0.1,0.1-0.2,0.1-0.4,0.2c-2.1,1-4.2,1.5-6.2,1.5c-2.8,0-5.2-0.7-7-2.2c-1.9,1.4-3.8,2.2-5.7,2.2
			c-2.3,0-3.9-0.8-4.9-1.8c-1.7,1.2-3.7,1.8-5.9,1.8c-1.4,0-2.7-0.3-3.8-1c-0.7,0.3-1.4,0.6-2.2,0.7c-0.4,4.5-1.2,8.5-2.4,11.7
			C30.6,65.4,27.2,66.6,24.7,66.6z M63.8,36.5c0,0.1,0,0.2,0,0.2c0,2.2,0.7,2.2,1.6,2.2c0.7,0,1.4-0.3,2.3-0.8
			c0.2-0.1,0.4-0.3,0.7-0.4c-0.4,0.1-0.8,0.2-1.2,0.2c-1.1,0-2-0.3-2.8-0.9C64.2,36.8,64,36.6,63.8,36.5z M101.5,33.1
			c-0.4,1.8-0.6,3.1-0.8,4c0.4-0.5,0.9-1.1,1.5-1.8l0,0c0-0.4,0-0.9,0-1.3c0-0.4,0-0.8,0-1.2c-0.2,0-0.4-0.1-0.7-0.1
			C101.5,32.8,101.5,33,101.5,33.1z M35.4,35.1c-0.1-0.3-0.2-0.2-0.1-0.5c0,0.1,0.2-0.2,0.1-0.1C35.4,34.6,35.4,34.9,35.4,35.1z"/>
	</g>
	<g>
		<path class="st1" d="M52.1,23.8c1.2,0,2.1-0.3,2.8-1c0.7-0.6,1.1-1.5,1.1-2.6c0-0.9-0.3-1.6-0.9-2.1c-0.6-0.5-1.4-0.7-2.4-0.7
			c-1.1,0-2,0.3-2.8,1s-1.1,1.4-1.1,2.4s0.3,1.7,0.8,2.2C50.1,23.5,51,23.8,52.1,23.8z"/>
		<path class="st1" d="M98.4,23.8c1.2,0,2.1-0.3,2.8-1s1.1-1.5,1.1-2.6c0-0.9-0.3-1.6-0.9-2.1c-0.6-0.5-1.4-0.7-2.4-0.7
			c-1.1,0-2,0.3-2.8,1S95,19.8,95,20.8s0.3,1.7,0.8,2.2C96.5,23.5,97.3,23.8,98.4,23.8z"/>
		<path class="st1" d="M114.8,30.4c3.1,0,4.6-0.9,4.6-2.8c0-0.5-0.1-0.9-0.3-1.1c-0.2-0.2-0.5-0.3-0.9-0.3h-4.6
			c3.5-3.1,5.3-6.8,5.3-11c0-1.5-0.3-2.8-1-3.8s-1.6-1.5-2.7-1.5c-1.6,0-3,0.7-4.3,2.2c-1.3,1.5-2.5,3.4-3.4,5.9
			c-0.9,2.5-1.7,5.2-2.1,8.2H103c-1.2,0-1.8,0.8-1.8,2.3c0,0.6,0.1,1.1,0.4,1.4c0.3,0.3,0.8,0.5,1.7,0.5h1.6
			c-0.1,1.2-0.1,2.4-0.1,3.6c0,0.9,0,1.7,0.1,2.5c-0.2,0.1-0.5,0.2-0.7,0.5c-1.2,1.5-2.2,2.5-2.9,3.2c-0.7,0.7-1.3,1-1.8,1
			c-0.5,0-0.9-0.2-1.1-0.7c-0.2-0.4-0.3-1.1-0.3-1.9c0-1.1,0.3-3.1,1-6.1c0.5-2.5,0.8-4,0.8-4.7c0-0.9-0.7-1.4-2.1-1.4
			c-0.9,0-1.6,0.2-1.9,0.5c-0.4,0.3-0.7,0.9-1,1.8c-0.5,1.6-0.9,3.4-1.2,5.3c-0.3,1.6-0.4,3-0.4,4.1c-0.8,0.9-1.5,1.5-2,2
			c-0.8,0.7-1.6,1-2.4,1c-0.8,0-1.5-0.2-2-0.7c-0.6-0.5-0.9-1-1-1.8c1.8-1,3.2-2.1,3.9-3.3s1.1-2.6,1.1-4.1c0-1.4-0.4-2.5-1.2-3.4
			c-0.8-0.9-1.9-1.4-3.3-1.4c-1.5,0-3,0.8-4.7,2.3c-1.7,1.5-3.2,4-4.5,7.4c0-1.5,0-2.9,0.1-4.4c3.6-3.9,6.2-7.4,7.8-10.3
			s2.4-5.8,2.4-8.5c0-1.7-0.4-3.1-1.2-4.2c-0.8-1.1-1.8-1.6-3-1.6c-2.3,0-4.3,1.5-6,4.6s-2.9,6.9-3.8,11.4S72,32.1,72,36.3
			c0,0.5,0,1,0,1.5c-1,1.1-2,1.9-3,2.5c-1.3,0.8-2.5,1.1-3.6,1.1c-2.7,0-4.1-1.6-4.1-4.7c0-1.1,0.2-2.2,0.5-3.1s0.8-1.7,1.3-2.3
			s1.1-0.8,1.8-0.8c0.3,0,0.6,0.1,0.8,0.3c0.2,0.2,0.3,0.5,0.3,0.8s-0.1,0.7-0.2,1.1c0,0.1-0.1,0.3-0.1,0.5s-0.1,0.5-0.1,0.7
			c0,0.4,0.2,0.8,0.5,1c0.3,0.2,0.7,0.4,1.2,0.4c0.8,0,1.5-0.4,2-1.2s0.8-1.8,0.8-2.9c0-1.4-0.4-2.5-1.2-3.4c-0.8-0.9-2-1.3-3.5-1.3
			c-1.5,0-3,0.5-4.3,1.3c-1.4,0.9-2.5,2.2-3.4,3.8c-0.9,1.6-1.3,3.6-1.3,5.8c0,0.5,0,0.9,0.1,1.4c-0.5,0.5-0.9,1-1.3,1.3
			c-0.7,0.7-1.3,1-1.8,1c-0.5,0-0.9-0.2-1.1-0.7c-0.2-0.4-0.3-1.1-0.3-1.9c0-1.1,0.3-3.1,1-6.1c0.5-2.5,0.8-4,0.8-4.7
			c0-0.9-0.7-1.4-2.1-1.4c-0.9,0-1.5,0.2-2,0.5c-0.4,0.3-0.7,0.9-1,1.8c-0.5,1.6-0.9,3.4-1.2,5.3c-0.3,1.6-0.4,3-0.5,4.1
			c-0.8,0.9-1.5,1.5-2,2c-0.8,0.7-1.7,1-2.6,1c-0.4,0-0.8-0.1-1.4-0.2c0.8-1.1,1.5-2.3,1.9-3.7c0.5-1.4,0.7-2.8,0.7-4.2
			c0-2-0.5-3.6-1.4-4.8s-2.2-1.8-3.7-1.8c-1,0-1.8,0.2-2.7,0.7s-1.7,1.2-2.6,2.3c0-0.3,0-0.8,0-1.5c0-0.7-0.2-1.1-0.4-1.4
			c-0.3-0.2-0.7-0.4-1.2-0.4c-1,0-1.8,0.2-2.4,0.7c-0.6,0.5-1,1.1-0.9,1.9c0,1.5,0.1,4.3,0.1,8.3c-2.5,4.3-4.4,8.2-5.7,11.7
			s-1.8,6.6-1.8,9.3c0,1.9,0.4,3.3,1.1,4.4c0.7,1.1,1.8,1.6,3.3,1.6c2.4,0,4.2-1.8,5.5-5.3c1.2-3.5,2-7.9,2.4-13.1
			c1.7,0,3.3-0.5,4.8-1.5c0.9,1,2.1,1.5,3.5,1.5c1.7,0,3.2-0.5,4.6-1.4c0.6-0.4,1.3-1,1.9-1.5c0.2,0.4,0.3,0.7,0.5,1
			c0.8,1.2,2.1,1.9,3.8,1.9c1.8,0,3.8-1,5.9-3.1c0.2,0.3,0.4,0.6,0.7,0.8c1.5,1.5,3.5,2.3,6.2,2.3c1.7,0,3.4-0.4,5.2-1.3
			c1-0.5,1.8-1,2.7-1.7c0.2,0.9,0.4,1.6,0.7,2.1c0.4,0.6,1,0.9,1.8,0.9s1.5-0.2,1.8-0.7c0.4-0.5,0.7-1.3,1-2.6
			c0.4-1.8,1-3.5,1.8-5.2c0.8-1.7,1.6-3,2.5-4.1s1.7-1.6,2.4-1.6c0.3,0,0.6,0.1,0.8,0.4c0.2,0.2,0.3,0.6,0.3,1.1
			c0,0.8-0.3,1.5-0.8,2.1c-0.5,0.6-1.4,1.1-2.6,1.7c-1.1,0.5-1.6,1.2-1.6,2.3c0,2,0.6,3.6,1.9,4.8c1.3,1.2,3,1.8,5.1,1.8
			c1.7,0,3.2-0.5,4.4-1.3c0.6-0.4,1.2-1,1.8-1.5c0.2,0.4,0.3,0.7,0.5,1c0.8,1.2,2.1,1.9,3.8,1.9c2.3,0,4.8-1.6,7.5-4.9
			c0,0,0.1-0.1,0.1-0.1c0.2,0.7,0.5,1.2,0.8,1.8c1.2,2.2,3.1,3.2,5.7,3.2c1.8,0,3.4-0.6,4.8-1.8c0.4-0.3,0.7-0.7,0.9-1.2
			c0.2-0.5,0.3-1,0.3-1.5c0-0.5-0.1-1-0.3-1.3c-0.2-0.4-0.5-0.5-0.8-0.5c-0.3,0-0.6,0.1-0.9,0.4c-0.5,0.4-1,0.8-1.6,1.1
			s-1.1,0.4-1.6,0.4c-0.8,0-1.5-0.2-2-0.7c-0.5-0.5-0.8-1.3-1-2.4c-0.2-1.1-0.3-2.6-0.3-4.6c0-0.8,0-1.8,0.1-3.2L114.8,30.4
			L114.8,30.4z M111.4,19.6c0.4-1.8,0.9-3.2,1.4-4.2c0.5-1,1-1.5,1.4-1.5c0.6,0,0.9,0.8,0.9,2.4c0,1.4-0.4,3-1.2,4.7
			c-0.8,1.7-2,3.3-3.6,4.7C110.6,23.4,110.9,21.4,111.4,19.6z M78.9,19c0.6-2.4,1.1-4.3,1.7-5.7c0.6-1.4,1.1-2.1,1.6-2.1
			c0.3,0,0.6,0.2,0.8,0.7c0.2,0.5,0.3,1.1,0.3,2c0,1.9-0.6,4-1.7,6.3s-2.5,4.5-4.2,6.5C77.9,23.9,78.3,21.4,78.9,19z M26.9,55.3
			C26.4,58.5,25.8,60,25,60c-0.3,0-0.5-0.2-0.7-0.7c-0.2-0.5-0.3-1.1-0.3-2c0-1.7,0.3-3.8,1-6.2s1.6-5.1,2.8-7.8
			C27.7,48.1,27.4,52.1,26.9,55.3z M37.5,37c-0.5,1.3-1.2,2.3-2,3.2c-0.8,0.8-1.7,1.4-2.7,1.6c0-0.7,0-1.6,0-2.9c0-2.3,0-4.1,0-5.2
			c1.4-2.1,2.6-3.1,3.5-3.1c0.5,0,1,0.2,1.3,0.6c0.3,0.4,0.5,1,0.5,1.9C38.2,34.4,38,35.7,37.5,37z"/>
	</g>
</g>
</svg>
