<svg xmlns="http://www.w3.org/2000/svg" width="21.996" height="22" viewBox="0 0 21.996 22">
  <g id="Categories" transform="translate(-133.002 -749)">
    <path id="Categories-2" data-name="Categories" d="M148.4,771a3.394,3.394,0,0,1-3.328-3.41v-3.322a3.367,3.367,0,0,1,3.328-3.4h3.255a3.394,3.394,0,0,1,3.344,3.4v3.322A3.41,3.41,0,0,1,151.66,771Zm-1.54-6.732v3.322a1.588,1.588,0,0,0,.449,1.115,1.52,1.52,0,0,0,1.082.458h3.277a1.52,1.52,0,0,0,1.082-.458,1.588,1.588,0,0,0,.449-1.115v-3.322a1.579,1.579,0,0,0-.451-1.113,1.516,1.516,0,0,0-1.09-.461H148.4A1.56,1.56,0,0,0,146.859,764.268Zm-10.52,6.722A3.446,3.446,0,0,1,133,767.581v-3.313a3.435,3.435,0,0,1,.978-2.406,3.3,3.3,0,0,1,2.36-.99h1.337a.893.893,0,0,1,.857.426.935.935,0,0,1,0,.974.893.893,0,0,1-.857.425H136.34a1.567,1.567,0,0,0-1.551,1.574v3.283a1.6,1.6,0,0,0,1.551,1.573h3.276a1.526,1.526,0,0,0,1.1-.456,1.594,1.594,0,0,0,.455-1.117v-4.931a.924.924,0,0,1,.4-.942.885.885,0,0,1,1.005.03.927.927,0,0,1,.348.964v4.908a3.373,3.373,0,0,1-3.336,3.41H136.34Zm14.014-11.828a.92.92,0,0,1,0-1.825h1.307a1.531,1.531,0,0,0,1.1-.474,1.6,1.6,0,0,0,.44-1.131V752.41a1.577,1.577,0,0,0-1.54-1.573H148.4a1.558,1.558,0,0,0-1.54,1.573v4.972a.917.917,0,0,1-.918.9.88.88,0,0,1-.627-.284.923.923,0,0,1-.242-.655v-4.93a3.432,3.432,0,0,1,.971-2.409,3.292,3.292,0,0,1,2.356-1h3.255a3.447,3.447,0,0,1,3.328,3.41v3.312a3.44,3.44,0,0,1-.946,2.42,3.3,3.3,0,0,1-2.338,1.02ZM139.6,759.13H136.34a3.4,3.4,0,0,1-3.338-3.4V752.41A3.41,3.41,0,0,1,136.34,749H139.6a3.392,3.392,0,0,1,3.334,3.41v3.322a3.454,3.454,0,0,1-.979,2.407,3.265,3.265,0,0,1-2.348.99Zm-4.371-7.846a1.6,1.6,0,0,0-.462,1.126v3.322a1.6,1.6,0,0,0,.451,1.144,1.531,1.531,0,0,0,1.089.46H139.6a1.548,1.548,0,0,0,1.1-.474,1.6,1.6,0,0,0,.44-1.13V752.41a1.573,1.573,0,0,0-1.54-1.575h-3.294A1.515,1.515,0,0,0,135.23,751.284Z" fill="#b7b7b7"/>
  </g>
</svg>
