<svg xmlns="http://www.w3.org/2000/svg" width="40.824" height="33.498" viewBox="0 0 40.824 33.498">
  <g id="Group_156" data-name="Group 156" transform="translate(3932.981 1291.069)">
    <path id="Path_324" data-name="Path 324" d="M-3927.49-1266.824h-2.844c-.844,0-1.089-.246-1.089-1.093q0-2.911,0-5.822c0-.811.255-1.061,1.081-1.061h2.589v-6.685a6.422,6.422,0,0,1-3.019-1.744q-.875-.693-1.744-1.4a.9.9,0,0,1,0-1.571c.818-.658,1.647-1.3,2.457-1.971a4.826,4.826,0,0,1,2.305-1.166c0-.318-.01-.622,0-.926a.8.8,0,0,1,.807-.811.742.742,0,0,1,.767.794.987.987,0,0,0,.868,1.275,2.734,2.734,0,0,1,.948.569c.965.75,1.916,1.519,2.868,2.287a.833.833,0,0,1-.009,1.479c-.91.734-1.8,1.493-2.746,2.182a21.287,21.287,0,0,1-1.891,1.112v6.55h1.577v-.417c0-1.143,0-2.286,0-3.429a2.392,2.392,0,0,1,2.5-2.513q3.051-.007,6.1,0a2.4,2.4,0,0,1,2.565,2.528c0,.1,0,.208,0,.336h1.561a9.3,9.3,0,0,1,.1-1,2.327,2.327,0,0,1,2.244-1.863c2.233-.017,4.467-.021,6.7,0a2.359,2.359,0,0,1,2.31,2.374c.015,1.3.009,2.6.013,3.907a.293.293,0,0,0,.023.063h1.54v-6.66a6.431,6.431,0,0,1-3-1.741c-.625-.5-1.25-.99-1.866-1.5a.792.792,0,0,1-.02-1.348c1.031-.838,2.051-1.694,3.124-2.475a12.991,12.991,0,0,1,1.782-.918c0-.18-.007-.471,0-.762a.8.8,0,0,1,.779-.84.8.8,0,0,1,.812.847c.008.292,0,.584,0,.869,1.943.632,3.229,2.179,4.792,3.324a.758.758,0,0,1-.021,1.266c-1.072.872-2.141,1.75-3.251,2.571a9.842,9.842,0,0,1-1.508.763v6.6c.116.008.23.023.344.023.757,0,1.515,0,2.273,0a.794.794,0,0,1,.88.859q.01,3.13,0,6.26a.794.794,0,0,1-.886.853c-.891.007-1.782,0-2.672,0h-.428v.385c0,1.9.006,3.8-.006,5.7a.554.554,0,0,0,.294.543c.551.346,1.089.714,1.627,1.079a.808.808,0,0,1,.338,1.184.811.811,0,0,1-1.223.142c-.322-.21-.641-.425-.953-.632a2.114,2.114,0,0,1-.334.6,1,1,0,0,1-.6.228c-.4.009-.638-.279-.769-.856-.35.232-.689.463-1.035.683a.8.8,0,0,1-1.188-.175.8.8,0,0,1,.318-1.158c.57-.389,1.152-.762,1.718-1.158a.5.5,0,0,0,.212-.331c.013-2.059.009-4.119.009-6.209h-2.928a10.5,10.5,0,0,1-3.17,6.365c.379.358.753.709,1.125,1.062.135.128.268.258.394.4a.794.794,0,0,1,.022,1.171.783.783,0,0,1-1.141-.04c-.434-.412-.852-.84-1.271-1.267a4.179,4.179,0,0,1-.286-.363,10.405,10.405,0,0,1-5.961,1.9,10.346,10.346,0,0,1-5.95-1.856c-.522.526-1.031,1.047-1.549,1.558a.793.793,0,0,1-1.044.175.8.8,0,0,1-.1-1.268c.473-.484.966-.949,1.48-1.452a10.5,10.5,0,0,1-3.17-6.377h-2.912c-.007.115-.019.23-.019.345,0,1.9,0,3.8-.006,5.7a.552.552,0,0,0,.285.548c.542.335,1.066.7,1.6,1.054s.657.783.383,1.206-.737.471-1.254.133l-.968-.638c-.142.6-.419.877-.85.868s-.685-.279-.814-.87c-.351.231-.688.459-1.031.679a.8.8,0,0,1-1.19-.165.794.794,0,0,1,.308-1.16c.57-.389,1.152-.762,1.718-1.157a.5.5,0,0,0,.218-.328c.011-2.047,0-4.094,0-6.141C-3927.443-1266.74-3927.462-1266.763-3927.49-1266.824Zm14.895,7.657a8.79,8.79,0,0,0,8.774-8.775,8.787,8.787,0,0,0-8.776-8.771,8.788,8.788,0,0,0-8.773,8.774A8.79,8.79,0,0,0-3912.6-1259.167Zm17.213-14.012h-8.231c.213.458.4.9.623,1.314a.528.528,0,0,0,.367.244c.53.028,1.063.006,1.594.013a.806.806,0,0,1,.875.782.811.811,0,0,1-.889.81c-.449.006-.9,0-1.368,0l.2,1.574h6.825v-1.574h-1.175c-.4,0-.8.01-1.2,0a.8.8,0,0,1-.789-.7.792.792,0,0,1,.576-.849,1.724,1.724,0,0,1,.434-.036c.713,0,1.426,0,2.157,0Zm-26.2,0h-8.228v1.567h.406c.651,0,1.3-.009,1.953,0a.792.792,0,0,1,.811.805.8.8,0,0,1-.8.781c-.358.015-.717,0-1.076,0h-1.3v1.576h6.831c.064-.522.126-1.03.194-1.576-.473,0-.922.005-1.371,0a.809.809,0,0,1-.885-.814.806.806,0,0,1,.88-.778c.531-.007,1.063.006,1.594-.008a.417.417,0,0,0,.315-.144C-3922.014-1272.216-3921.808-1272.688-3921.582-1273.176Zm19.516-4.836c0-.245,0-.456,0-.667a.815.815,0,0,0-.915-.905c-.531-.005-1.062,0-1.593,0q-2.35,0-4.7,0c-.507,0-.853.235-.908.654a7.16,7.16,0,0,0-.007.918Zm-20.871-.015h7.947c0-.168,0-.3,0-.431,0-.895-.232-1.127-1.133-1.127-1.806,0-3.612.036-5.417-.011-1.437-.037-1.482.437-1.418,1.519A.223.223,0,0,0-3922.937-1278.027Zm-1.251-8.191c-2.491-2.413-3.851-1.794-5.629,0Zm28.859,0c-2.271-2.232-3.64-1.994-5.623,0Zm-28.866,1.61h-5.707C-3927.449-1282.3-3926.229-1282.685-3924.194-1284.611Zm23.189.014c2.545,2.452,3.9,1.741,5.625,0Zm-1.077,8.223h-4.392c.529.5,1.042.991,1.56,1.474a.338.338,0,0,0,.206.093c.87.006,1.741,0,2.626,0Zm-16.639,0h-4.218v1.57c.823,0,1.617,0,2.412,0a.4.4,0,0,0,.246-.092C-3919.761-1275.379-3919.249-1275.87-3918.721-1276.37Z" fill="#00bbde"/>
    <path id="Path_325" data-name="Path 325" d="M-3644.629-1010.9a7.127,7.127,0,0,1-3.593,5.82.8.8,0,0,1-1.149-.22.794.794,0,0,1,.341-1.148,5.584,5.584,0,0,0,2.808-4.792.806.806,0,0,1,.809-.849.811.811,0,0,1,.784.874C-3644.628-1011.144-3644.629-1011.078-3644.629-1010.9Z" transform="translate(-260.789 -256.651)" fill="#fff"/>
    <path id="Path_326" data-name="Path 326" d="M-3687.437-931.6a.784.784,0,0,1,.783-.788.814.814,0,0,1,.8.783.812.812,0,0,1-.815.808A.786.786,0,0,1-3687.437-931.6Z" transform="translate(-225.888 -329.97)" fill="#fff"/>
  </g>
</svg>
