<svg enable-background="new 0 0 583.45 482.6" viewBox="0 0 583.45 482.6" xmlns="http://www.w3.org/2000/svg" xmlns:xlink="http://www.w3.org/1999/xlink"><clipPath id="a"><path d="m109.68 48.8h272.92v318.23h-272.92z"/></clipPath><g transform="translate(-35.832 -198.905)"><path d="m533.67 339.16c33.55 47.86-9.62 135.99-96.42 196.84s-269.01 18.63-308.43-86.89c-20.45-54.75 100.12-25.55 186.93-86.41s184.37-71.39 217.92-23.54z" fill="#fcc" opacity=".65"/><path d="m244.03 634.52c-57.8-8.69-91.89-100.71-76.12-205.54 5.17-34.38 25.45-68.56 54.15-97.53 58.42-58.97 151.79-95.68 221.42-65.99 53.76 22.93-50.51 90.15-66.26 194.98-15.76 104.83-75.39 182.77-133.19 174.08z" fill="#ff9c9c" opacity=".41"/></g><g clip-path="url(#a)" transform="translate(48.106 28.451)"><path d="m221.36 329.1c-23.87-4.57-49.39-15.42-41.05-38.33 2.43-6.68 9.63-11.3 14.4-14.36 15.63-10.04 33.64-16.55 51.06-22.85 16.97-6.14 12.76-4.79 18.32-6.7 8.16-2.81 35.73-12.26 32.45-20.24-6.03-14.63-71.42-10.61-102.8-16.23-8.35-1.5-19.45-4.38-19.45-12.08 0-9.47 4.78-18.42 13.81-25.87 4.15-3.42 8.76-6.26 13.68-8.43l.94 2.31c-.26.11-25.94 10.87-25.94 31.99 0 4.38 5.69 7.52 17.4 9.63 33.41 5.99 97.69.82 104.66 17.74 4.35 10.57-23.03 19.8-33.95 23.55-5.64 1.94-.91.41-18.28 6.69-17.29 6.25-35.16 12.72-50.56 22.6-4.48 2.88-11.26 7.23-13.4 13.11s-1.89 11.2.74 15.83c6.23 10.98 24.34 16.5 38.44 19.2 26.17 5.01 54.94 7.24 78.51-4.98l1.14 2.21c-24.15 12.53-53.38 10.34-80.12 5.21" fill="#653870"/><path d="m299.18 110.11s4.7 13.62 4.69 22.52c-.02 8.9-9.23 39.9-9.23 39.9l-9.83 5.67s-9.17-14.3-1.44-35.19c4.08-11.5 9.38-22.53 15.81-32.9" fill="#d67f43"/><path d="m178.25 355.61-4.56 5.99 15.02 5.44s-6.38-6.13-6.02-9.02c.36-2.9-4.43-2.41-4.44-2.41" fill="#31302c"/><path d="m125.6 233.95-3.27-6.78-11.66 10.91s8.36-2.9 10.77-1.27 4.15-2.85 4.16-2.86" fill="#31302c"/><path d="m255.43 200.12c1.41-6.4-61.78-4.94-61.78-4.94l-23.73 80.56-43.05-44.2s-6.24 8.94-5.75 7.57c-.49 1.37 45.46 55.72 47.32 56.4 12.57 4.56 55.11-94.02 56.35-94.65 0 0 4.9 61.89 1.97 66.97l-51.49 89.4c1.65 1.63 10.43 2.82 9.45 2.47-3.36-1.22 58.17-86.92 60.33-89.4 2.17-2.48 8.97-63.79 10.38-70.18" fill="#31302c"/><path d="m259.5 191.5c1.41-6.4-61.58-11-61.58-11l-5.55 17.81c19.15 7.87 44.32 14.41 62.88 9.08 2.29-8.31 3.92-14.35 4.25-15.89" fill="#1c1c1c"/><path d="m299.18 110.11c-1.3-4.45-12.13-9.33-12.13-9.33s-6.92-7.2-21.64-6.88c-6.02.13-14.15 26.74-31.74 48-16.69 20.17-43.03 35.05-43.03 35.05s35.73 44.31 65.86 40.25c-.01-.02 51.8-75.81 42.68-107.09" fill="#216f7c"/><path d="m287.24 76.28s-8.63 22.29-8.28 27.27c.34 4.98 8.11 10.22 12.35 9.24l8.08-18.69z" fill="#d67f43"/><path d="m297.02 99.6 2.38-5.5-12.15-17.83s-1.74 4.49-3.62 9.89c.8 3.2 2.11 6.24 3.87 9.03 2.52 3.77 6.13 5.17 9.52 4.41" fill="#9b5729"/><path d="m311.3 58.74s4.64 2.95 4.44 7.34c-.2 4.4-6.97 23.77-10.64 27.44s-9.42 2.9-13.32-2.59-7.68-16.38-5.2-24.14 17.03-15.76 24.72-8.05" fill="#d67f43"/><path d="m306.33 52.67c-3.76-.33-9.97-7.64-16.38-1.26s-1.87 9.26-4.19 11.56-2.33 3.67-2.57 9.14c-.26 3.05-.02 6.13.72 9.1.14.69.4 1.36.77 1.96l2.48-6.7s-1.45-4-.02-5.42 3.39 1.82 4.78 1.15c2.22-1.07 2.72-13.13 11.7-12.4 7.85.63 11.95 5.5 11.11 11.14 2.29.39 7.12-16.91-8.4-18.27" fill="#2d2d2d"/><path d="m366.73 151.58.16-3.53.99.04-.16 3.53z"/><path d="m370.52 158.63-.16 3.53-.99-.04.16-3.53z"/><path d="m362.34 159.89-.16 3.53-.99-.04.16-3.53z"/><path d="m354.81 161.55-.16 3.53-.99-.04.16-3.52z"/><path d="m359.07 149.76.16-3.52.99.04-.16 3.53z"/><path d="m351.17 148.55.16-3.52.99.04-.16 3.53z"/><path d="m365.31 148.73.47-1.41c.25-.76.97-1.26 1.77-1.23s1.47.59 1.65 1.36l.34 1.45z" fill="#21191a"/><path d="m371.94 161.48-.47 1.41c-.25.76-.97 1.26-1.77 1.23s-1.47-.59-1.65-1.36l-.34-1.45z" fill="#21191a"/><path d="m363.75 162.74-.47 1.41c-.25.76-.97 1.26-1.77 1.23s-1.47-.59-1.65-1.36l-.34-1.44z" fill="#21191a"/><path d="m356.23 164.39-.47 1.41c-.25.76-.97 1.26-1.77 1.23-.79-.03-1.47-.59-1.65-1.36l-.34-1.44z" fill="#21191a"/><path d="m357.66 146.92.47-1.41c.25-.76.97-1.26 1.76-1.23s1.47.59 1.65 1.36l.34 1.45z" fill="#21191a"/><path d="m349.75 145.71.47-1.42c.25-.76.97-1.26 1.77-1.23s1.47.59 1.65 1.36l.34 1.44z" fill="#21191a"/><path d="m269.05 150.84s-8.2-23.45-11.11-24.46-18.56 7.37-22.11 6.33-27.4-16.24-35.61-13.35c-8.22 2.89-18.1 28.72-18.1 28.72s6.25.89 9.47 15.28c3.21 14.39 6.49 15.67 13.41 15.95s29.12-11.07 33.22-10.91 33.08 18.26 36.23 16.71 4.66-6.63-3.52-13.24-11.91-12.16-11.78-15.11c.14-2.95 9.9-5.91 9.9-5.92" fill="#1c1c1c"/><path d="m341.52 150.6s5.04.11 6.69-4.02c0 0 32.01 5.79 31.98 6.56s-.26 4.01 1.16 4.67c1.43.66 1.94 2.48-.11 2.39s-24.52-.96-30.36 3.18c-1.69-3.36-5.29-5.31-9.03-4.9-6.85.33-88.15-1.82-88.15-1.82l.49-10.9z" fill="#454551"/><path d="m341.86 158.49.07-1.64-88.06-3.81-.16 3.63s58.16 1.54 80.24 1.82z" fill="#23232b"/><path d="m350.88 163.38c5.83-4.14 28.3-3.26 30.36-3.18s1.53-1.74.11-2.39c-1.43-.65-1.2-3.9-1.16-4.67.03-.77-31.98-6.56-31.98-6.56-1.63 4.13-6.69 4.02-6.69 4.02l-.16-.01-.35 7.93c.36 0 .64-.01.86-.02 3.72-.43 7.32 1.53 9.01 4.88" fill="#21191a"/><path d="m381.35 157.81c-.53-.33-.89-.88-.98-1.49l-39.19-1.54-.16 3.73c.36 0 .64-.01.86-.02 3.74-.42 7.34 1.54 9.03 4.9 5.83-4.14 28.3-3.26 30.36-3.18s1.51-1.74.08-2.4"/><path d="m336.44 157.08.23-5.26 3.2.13-.23 5.26z" fill="#ffbb7d"/><path d="m323.65 156.88.25-5.56 3.08.12-.25 5.56z" fill="#ffbb7d"/><path d="m312.5 156.44.25-5.56 3.08.12-.25 5.56z" fill="#ffbb7d"/><path d="m302.55 156.04.26-5.82 3.08.12-.26 5.82z" fill="#ffbb7d"/><path d="m293.99 155.97.27-6.07 2.35.09-.27 6.07z" fill="#ffbb7d"/><path d="m282.63 155.53.28-6.24 2.39.09-.28 6.24z" fill="#ffbb7d"/><path d="m273.1 155.15.28-6.24 2.05.08-.28 6.24z" fill="#ffbb7d"/><path d="m268.25 155.52.3-6.8.9.03-.3 6.8z" fill="#ffbb7d"/><path d="m263.33 155.33.3-6.8.94.04-.3 6.8z" fill="#ffbb7d"/><path d="m259.1 155.16.33-7.4.68.03-.33 7.4z" fill="#ffbb7d"/><path d="m245.93 157.9.64-14.32c.03-.76.67-1.34 1.43-1.32l6.2.24c.75.03 1.34.66 1.31 1.41v.01l-.64 14.32c-.03.76-.67 1.34-1.43 1.31l-6.2-.24c-.76-.01-1.34-.65-1.31-1.41 0 .01 0 .01 0 0" fill="#e6e6e6"/><path d="m246.58 156.64.5-11.29c.02-.52.46-.92.98-.9l5.47.21c.52.02.92.45.9.97v.01l-.5 11.29c-.02.52-.46.92-.98.9l-5.47-.21c-.51-.02-.91-.45-.9-.98.01.01.01.01 0 0" fill="#151523"/><g fill="#999"><path d="m252.43 147.47c-.37-.01-.67-.32-.65-.7v-.01c.02-.38.33-.67.71-.65.37.01.66.32.65.69v.01c-.02.38-.33.67-.71.66"/><path d="m249.25 147.34c-.37-.01-.66-.32-.65-.69v-.01c.02-.38.33-.67.71-.65.37.01.67.32.65.7v.01c-.01.36-.33.66-.71.64"/><path d="m252.34 149.36c-.37-.01-.66-.32-.65-.69v-.01c.02-.38.33-.67.71-.65.37.01.66.32.65.69v.01c-.01.37-.33.66-.71.65"/><path d="m249.17 149.24c-.37-.01-.67-.32-.65-.7v-.01c.02-.38.33-.67.71-.65.37.01.67.32.65.7v.01c-.02.37-.33.67-.71.65"/><path d="m252.26 151.15c-.37-.01-.66-.32-.65-.69v-.01c.02-.38.33-.67.71-.65.37.01.66.32.65.69v.01c-.01.38-.33.67-.71.65"/><path d="m249.09 151.03c-.37-.01-.67-.32-.65-.7v-.01c.02-.38.33-.67.71-.65.37.01.67.32.65.7v.01c-.02.37-.33.66-.71.65"/><path d="m252.17 153.17c-.37-.01-.66-.32-.65-.69v-.01c.02-.38.33-.67.71-.65.37.01.67.32.65.7v.01c-.01.36-.33.66-.71.64"/><path d="m249 153.05c-.37-.01-.66-.32-.65-.69v-.01c.02-.38.33-.67.71-.65.37.01.66.32.65.69v.01c-.02.37-.33.66-.71.65"/><path d="m252.1 154.78c-.37-.01-.66-.32-.65-.69v-.01c.02-.38.33-.67.71-.65.37.01.67.32.65.7v.01c-.02.36-.33.65-.71.64"/><path d="m248.93 154.65c-.37-.01-.66-.32-.65-.69v-.01c.02-.38.33-.67.71-.65.37.01.67.32.65.7v.01c-.02.36-.33.65-.71.64"/><path d="m252.01 156.83c-.37-.01-.67-.32-.65-.7v-.01c.02-.38.33-.67.71-.65.37.01.67.32.65.7v.01c-.02.37-.33.66-.71.65"/><path d="m248.84 156.71c-.37-.01-.66-.32-.65-.69v-.01c.02-.38.33-.67.71-.65.37.01.66.32.65.69v.01c-.02.37-.33.66-.71.65"/></g><path d="m254.06 144.02c-.25-.01-.44-.22-.43-.47.01-.25.22-.44.47-.43s.44.22.43.47c-.01.25-.22.44-.47.43" fill="#454551"/><path d="m247.7 143.87c-.23-.01-.41-.2-.4-.43.01-.23.2-.41.43-.4s.41.2.4.43c-.01.23-.2.41-.43.4" fill="#454551"/><path d="m253.32 159.09c-.25-.01-.44-.22-.43-.47.01-.25.22-.44.47-.43s.44.22.43.47c-.01.25-.22.45-.47.43" fill="#454551"/><path d="m246.97 158.94c-.23-.01-.41-.2-.4-.43.01-.23.2-.41.43-.4s.41.2.4.43v.01c-.01.22-.2.39-.43.39" fill="#454551"/><path d="m226.7 157.15.64-14.32c.03-.76.67-1.34 1.43-1.32l6.2.24c.75.03 1.34.66 1.31 1.41v.01l-.64 14.32c-.03.76-.67 1.34-1.43 1.31l-6.2-.24c-.75-.03-1.34-.66-1.31-1.41z" fill="#e6e6e6"/><path d="m227.36 155.89.5-11.29c.02-.52.46-.92.98-.9l5.47.21c.52.02.92.45.9.97v.01l-.5 11.29c-.02.52-.46.92-.98.9l-5.47-.21c-.52-.02-.92-.46-.9-.98z" fill="#151523"/><path d="m233.2 146.72c-.37-.01-.66-.32-.65-.69v-.01c.02-.38.33-.67.71-.65.37.01.67.32.65.7v.01c-.02.36-.33.65-.71.64" fill="#999"/><path d="m230.03 146.59c-.37-.01-.66-.32-.65-.69v-.01c.02-.38.33-.67.71-.65.37.01.66.32.65.69v.01c-.02.37-.33.66-.71.65" fill="#999"/><path d="m233.12 148.61c-.37-.01-.67-.32-.65-.7v-.01c.02-.38.33-.67.71-.65.37.01.66.32.65.69v.01c-.02.38-.34.67-.71.66" fill="#999"/><path d="m229.95 148.48c-.37-.01-.67-.32-.65-.7v-.01c.02-.38.33-.67.71-.65.37.01.67.32.65.7v.01c-.02.37-.34.66-.71.65" fill="#999"/><path d="m233.04 150.4c-.37-.01-.66-.32-.65-.69v-.01c.02-.38.33-.67.71-.65.37.01.66.32.65.69v.01c-.02.37-.34.66-.71.65" fill="#999"/><path d="m229.87 150.27c-.37-.01-.66-.32-.65-.69v-.01c.02-.38.33-.67.71-.65.37.01.66.32.65.69v.01c-.02.37-.34.66-.71.65" fill="#999"/><path d="m232.95 152.42c-.37-.01-.66-.32-.65-.69v-.01c.02-.38.33-.67.71-.65.37.01.67.32.65.7v.01c-.02.36-.34.65-.71.64" fill="#999"/><path d="m229.78 152.3c-.37-.01-.67-.32-.65-.7v-.01c.02-.38.33-.67.71-.65.37.01.66.32.65.69v.01c-.02.38-.34.67-.71.66" fill="#999"/><path d="m232.88 154.02c-.37-.01-.66-.32-.65-.69v-.01c.02-.38.33-.67.71-.65.37.01.67.32.65.7v.01c-.02.36-.34.66-.71.64" fill="#999"/><path d="m229.71 153.9c-.37-.01-.66-.32-.65-.69v-.01c.02-.38.33-.67.71-.65.37.01.66.32.65.69v.01c-.02.37-.34.66-.71.65" fill="#999"/><path d="m232.79 156.08c-.37-.01-.66-.32-.65-.69v-.01c.02-.38.33-.67.71-.65.37.01.66.32.65.69v.01c-.02.37-.34.66-.71.65" fill="#999"/><path d="m229.61 155.95c-.37-.01-.66-.32-.65-.69v-.01c.02-.38.33-.67.71-.65.37.01.66.32.65.69v.01c-.01.37-.33.67-.71.65" fill="#999"/><path d="m234.83 143.28c-.25-.01-.44-.22-.43-.47.01-.25.22-.44.47-.43s.44.22.43.47c-.01.24-.22.43-.47.43" fill="#454551"/><path d="m228.47 143.12c-.23-.01-.41-.2-.4-.43.01-.23.21-.41.44-.4s.41.2.4.43c-.01.23-.2.41-.44.4" fill="#454551"/><path d="m234.1 158.34c-.25-.01-.44-.22-.43-.47.01-.25.22-.44.47-.43s.44.22.43.47c-.01.25-.22.44-.47.43" fill="#454551"/><path d="m227.74 158.18c-.23-.01-.41-.2-.4-.43.01-.23.2-.41.44-.4.23.01.41.2.4.43-.01.23-.21.41-.44.4" fill="#454551"/><path d="m221.3 141.2 5 .2-.78 17.53-5-.2z" fill="#999"/><path d="m220.99 158.3.74-16.63 4.1.16-.74 16.63z" fill="#453659"/><path d="m221.56 145.58.05-1.06 4.13.16-.05 1.06z" fill="#808080"/><path d="m221.46 147.72.05-1.06 4.13.16-.05 1.06z" fill="#808080"/><path d="m221.37 149.85.05-1.06 4.13.16-.05 1.06z" fill="#808080"/><path d="m221.27 152 .05-1.06 4.13.16-.05 1.06z" fill="#808080"/><path d="m221.18 154.13.05-1.06 4.13.16-.05 1.06z" fill="#808080"/><path d="m221.09 155.87.05-1.06 4.13.16-.05 1.06z" fill="#808080"/><path d="m224.69 143.68c-.41.35-1.03.31-1.38-.1s-.31-1.03.1-1.38 1.03-.31 1.38.1c.36.41.31 1.03-.1 1.38"/><path d="m216.82 143.71c-.41.35-1.03.31-1.38-.1s-.31-1.03.1-1.38 1.03-.31 1.38.1c.36.41.31 1.03-.1 1.38" fill="#ffb769"/><path d="m224.05 158.08c-.41.35-1.03.31-1.38-.1s-.31-1.03.1-1.38 1.03-.31 1.38.1c.35.41.31 1.02-.1 1.38"/><path d="m215.06 157.71.65-14.58.82.03-.65 14.58z" fill="#ffb769"/><path d="m214.59 144.24.12-2.66 3.08.12-.12 2.66z" fill="#453659"/><path d="m215.14 142.05 2.18.08-.08 1.76-2.18-.08z" fill="#333"/><path d="m215.85 158.01c-.41.35-1.03.31-1.38-.1s-.31-1.03.1-1.38 1.03-.31 1.38.1c.36.41.31 1.03-.1 1.38" fill="#ffb769"/><path d="m213.62 158.55.12-2.66 3.08.12-.12 2.66z" fill="#453659"/><path d="m214.16 156.35 2.18.08-.08 1.76-2.18-.08z" fill="#333"/><path d="m215.14 149.21c0-.07.06-.13.13-.12l125.94 4.63 26.44-.81c.07 0 .13.05.13.12 0 .07-.06.13-.13.13l-26.45.81-125.95-4.63c-.06 0-.12-.06-.11-.13-.01 0-.01 0 0 0z" fill="#eee830"/><path d="m215.54 147.08c0-.07.06-.13.14-.12l125.59 5.64c.71-.06 17.69-1.45 18.25-1.43.07 0 .13.06.12.13 0 .07-.06.13-.13.12-.43-.02-12.11.93-18.23 1.43l-125.61-5.64c-.08 0-.13-.06-.13-.13z" fill="#eee830"/><path d="m215.33 144.93c.01-.07.07-.12.14-.12l125.83 6.72 10.36-1.6c.07-.01.13.04.15.1.01.07-.04.14-.11.15l-10.39 1.61h-.01l-125.85-6.72c-.07 0-.13-.06-.12-.14 0 .01 0 .01 0 0" fill="#eee830"/><path d="m215.05 151.18c0-.07.06-.13.13-.12l125.96 4.1 29.43 2.44c.07.01.12.07.12.14-.01.07-.07.12-.14.12l-29.42-2.44-125.96-4.1c-.07 0-.12-.06-.12-.14 0 .01 0 .01 0 0z" fill="#eee830"/><path d="m215.59 153.51c0-.07.06-.12.13-.12l125.37 3.06 20.83 1.8c.07.01.12.07.12.14-.01.07-.07.12-.14.12l-20.82-1.8-125.36-3.06c-.08-.01-.13-.07-.13-.14z" fill="#eee830"/><path d="m215.52 155.12c0-.07.06-.13.13-.12l125.38 2.69 13.28 2.53c.07.02.11.09.1.16-.02.07-.08.11-.14.1l-13.27-2.54-125.36-2.69c-.07 0-.12-.06-.12-.13z" fill="#eee830"/><path d="m214.87 145.45.05-1.06 2.4.09-.05 1.06z"/><path d="m214.78 147.58.05-1.06 2.4.09-.05 1.06z"/><path d="m214.68 149.71.05-1.06 2.4.09-.05 1.06z"/><path d="m214.59 151.86.05-1.06 2.4.09-.05 1.06z"/><path d="m214.49 154 .05-1.06 2.4.09-.05 1.06z"/><path d="m214.41 155.73.05-1.06 2.4.09-.05 1.06z"/><path d="m368.03 154.12c-.66-.03-1.17-.58-1.14-1.24 0 0 0 0 0-.01.03-.66.59-1.18 1.25-1.15s1.17.58 1.14 1.24v.01c-.03.66-.59 1.18-1.25 1.15" fill="#333"/><path d="m368.04 153.76c-.46-.02-.81-.4-.8-.86 0 0 0 0 0-.01.02-.46.41-.82.87-.8s.81.4.8.86v.01c-.02.46-.41.81-.87.8" fill="#595757"/><path d="m370.64 158.94c-.66-.03-1.17-.58-1.14-1.24 0 0 0 0 0-.01.03-.66.59-1.18 1.25-1.15s1.17.58 1.14 1.24v.01c-.03.66-.59 1.17-1.25 1.15" fill="#333"/><path d="m370.65 158.57c-.46-.02-.81-.4-.8-.86 0 0 0 0 0-.01.02-.46.41-.82.87-.8s.81.4.8.86v.01c-.02.46-.41.82-.87.8" fill="#595757"/><path d="m361.85 159.67c-.66-.03-1.17-.58-1.14-1.24 0 0 0 0 0-.01.03-.66.59-1.18 1.25-1.15s1.17.58 1.14 1.24v.01c-.03.66-.59 1.17-1.25 1.15" fill="#333"/><path d="m361.86 159.3c-.46-.02-.81-.4-.8-.86v-.01c.02-.46.41-.82.87-.8s.81.4.8.86v.01c-.02.46-.41.82-.87.8" fill="#595757"/><path d="m354.25 161.47c-.66-.03-1.17-.58-1.14-1.24 0 0 0 0 0-.01.03-.66.59-1.18 1.25-1.15s1.17.58 1.14 1.24v.01c-.03.66-.59 1.18-1.25 1.15" fill="#333"/><path d="m354.26 161.12c-.46-.02-.81-.4-.8-.86v-.01c.02-.46.41-.82.87-.8s.81.4.8.86v.01c-.03.46-.41.81-.87.8" fill="#595757"/><path d="m359.53 152.5c-.66-.03-1.17-.58-1.14-1.24 0 0 0 0 0-.01.03-.66.59-1.18 1.25-1.15s1.17.58 1.14 1.24v.01c-.02.66-.58 1.18-1.25 1.15" fill="#333"/><path d="m359.55 152.13c-.46-.02-.81-.4-.8-.86 0 0 0 0 0-.01.02-.46.41-.82.87-.8s.81.4.8.86v.01c-.02.46-.41.82-.87.8" fill="#595757"/><path d="m351.55 151.12c-.66-.03-1.17-.58-1.14-1.24 0 0 0 0 0-.01.03-.66.59-1.18 1.25-1.15s1.17.58 1.14 1.24v.01c-.03.66-.59 1.18-1.25 1.15" fill="#333"/><path d="m351.57 150.75c-.46-.02-.81-.4-.8-.86 0 0 0 0 0-.01.02-.46.41-.82.87-.8s.81.4.8.86v.01c-.02.46-.41.82-.87.8" fill="#595757"/><path d="m273.82 185.2c-1.18-.22-2.33-.59-3.41-1.12-8.63-3.74-28.16-15.95-32.16-16.3-1.36.05-2.7.35-3.95.89-7.59 2.54-19.88 8.4-27.14 9.79-1.14.15-2.3.2-3.45.14-4.08-.27-5.59-1.37-7.11-3.21-4.66-6.67-3.94-14.79-8.49-22.1-1.17-2.14-2.97-3.88-5.15-4.96 2.08 1.2 3.77 2.99 4.84 5.15 4.16 7.34 3.23 15.49 7.93 22.58 1.7 2.13 3.56 3.68 9.26 3.85 2.04.01 4.06-.35 5.97-1.06 9.76-2.84 21.92-10.22 27.24-9.85 5.76.4 23.01 11.79 32.13 15.26 1.12.47 2.29.78 3.49.94" fill="#511015"/><path d="m343.59 148.1c-.63 5.3-2.35 10.41-5.04 15.01-4.32 6.99-13.08 8.13-16.23 8.28-3.15.16-31.05 11.13-37.51 6.79-6.45-4.34 6.5-11.96 10.26-12.14s26.71.31 28.2-1.18 8.02-3.12 6.34-5.88c-1.68-2.75-4.98-4.62-3.25-4.7s3.98 2.1 5.8 3.94c1.83 1.83 3.24-2.82 2.94-4.77-.27-1.83-2.27-3.82-1.2-4.88s1.61.86 1.61.86-.26-1.65 1.31-1.73c1.43-.07.96.96.96.96s-.33-.96 1.44-1.04c1.76-.09 1.92.78 1.92.78s1.39-1.38 2.45-.33" fill="#d67f43"/><path d="m245.84 150.3c10.36 9.09 8.37 4.12 3 .03-4.9-3.73-7.16-5.35-6.94-5.83.59-.18 1.74.55 5.3 2.98 1.95 1.38 4.09 2.47 6.37 3.22 1.19-.36-.62-1.75-1.71-2.37-.11-.06-11.18-6.51-10.65-8.7.53-2.23 3.59-.26 5.41.94 1.85 1.22 3.98.38 3.59-.46-.48-1.05-3.62-.68-6.49-2.85-8.05-6.1-13.38-10.84-13.38-10.84-3.33-4.94-13.31-20.21-9.12-20.2 5 .01 31.38 19.59 39.64 7.88s8.72-16.03 4.55-20.21c0 0-60.5-9.93-63.21-.05s20.89 36.72 20.89 36.72c3.95 3.19 9.63 14.73 12.14 18.15 1.74 2.48 3.9 4.64 6.39 6.38.17.1.4.05.5-.12.08-.13.07-.29-.02-.41-1.68-2.14-5.79-5.61-4.94-7.47.71-.09 1.71.87 5.02 4.47 1.25 1.49 2.63 2.87 4.13 4.1 2.35.21-1.15-3.41-2.81-4.97-1.7-1.6-3.67-3.12-3.18-4.2.16-.35 2.69 1.32 5.55 3.82" fill="#d67f43"/><path d="m339.57 350.74h-24.58c-9.13 0-16.54-7.41-16.54-16.54v-44.76c0-9.13 7.4-16.54 16.54-16.54h24.57c9.13 0 16.54 7.4 16.54 16.54v44.76c.01 9.14-7.4 16.54-16.53 16.54-.01 0-.01 0 0 0" fill="#381a3f"/><path d="m314.35 358.83h-5.61l-2.7-13.51h8.31z" fill="#381a3f"/><path d="m338.86 358.83h5.61l2.7-13.51h-8.31z" fill="#381a3f"/><path d="m349.04 312.7c0 11.36-9.21 20.56-20.56 20.56-11.36 0-20.56-9.21-20.56-20.56 0-11.36 9.21-20.56 20.56-20.56 11.36-.01 20.56 9.2 20.56 20.56z" fill="#653870"/><path d="m338.25 312.69c0 5.39-4.37 9.77-9.76 9.77s-9.77-4.37-9.77-9.76 4.37-9.77 9.76-9.77c5.39 0 9.77 4.37 9.77 9.76" fill="#4c2a54"/><path d="m204.13 165.66c0 1.32-1.06 2.38-2.38 2.38s-2.38-1.06-2.38-2.38 1.06-2.38 2.38-2.38c1.32 0 2.38 1.06 2.38 2.38" fill="#511015"/><path d="m202.72 166.32-.94-2.31c-4.92 2.17-9.53 5-13.68 8.43-4.03 3.22-7.42 7.17-10 11.64l2.31.99c7.08-12.37 22.11-18.67 22.31-18.75" fill="#653870"/></g><path d="m420.8 245.44c-12.26-6.79-27.7-2.37-34.5 9.89s-2.37 27.7 9.89 34.5c12.26 6.79 27.7 2.37 34.5-9.89 6.79-12.26 2.36-27.7-9.89-34.5zm-16.23 34.53-4.44-2.46 2.46-4.45 4.44 2.46zm4.92-8.88-4.44-2.46 7.38-13.32 4.44 2.46z" fill="#ff7272"/><g fill="#41a7ab"><path d="m390.76 39.24c-4.44-3.5-10.41-4.36-15.66-2.24-.99.35-1.53 1.41-1.23 2.41l1.27 4.21c.31 1.01 1.36 1.6 2.38 1.32 3.15-.87 5.23-1.17 7.8.7 2.02 1.47 3.58 4.59 2.15 6.55-1.08 1.48-2.86 1.35-5.66 1.02-3.28-.39-7.54-1.01-10.5 3.06l-.47.64c-.63.87-.43 2.09.44 2.72l4.76 3.46c.87.63 2.09.44 2.72-.43l.28-.38c2.05-2.82 10.36 3.05 15.9-4.57 4.18-5.73 1.39-14.42-4.18-18.47zm-18.5 24.06c-2.51-1.83-6.03-1.27-7.86 1.24s-1.27 6.03 1.24 7.86 6.03 1.27 7.86-1.24c1.83-2.51 1.27-6.03-1.24-7.86z"/><path d="m422.43 73.51c-1.91-5.32-6.52-9.21-12.09-10.19-1.02-.23-2.04.38-2.32 1.39l-1.15 4.24c-.28 1.02.31 2.08 1.32 2.38 3.13.93 5.05 1.78 6.24 4.73.94 2.32.6 5.79-1.64 6.69-1.7.69-3.14-.36-5.34-2.13-2.57-2.06-5.86-4.85-10.53-2.96l-.74.3c-1 .41-1.47 1.54-1.07 2.54l2.21 5.46c.4 1 1.54 1.48 2.54 1.08l.43-.18c3.23-1.3 7.17 8.07 15.91 4.55 6.58-2.67 8.81-11.51 6.23-17.9zm-28.43 10.61c-1.16-2.88-4.44-4.27-7.33-3.11-2.88 1.16-4.27 4.44-3.11 7.33s4.44 4.27 7.33 3.11c2.88-1.18 4.27-4.45 3.11-7.33z"/></g></svg>