<svg xmlns="http://www.w3.org/2000/svg" width="22.016" height="21.972" viewBox="0 0 22.016 21.972">
  <g id="Favourite" transform="translate(-220.006 -749.021)">
    <path id="Favourite-2" data-name="Favourite" d="M230.322,770.847a38.1,38.1,0,0,1-6.595-5.415,14.435,14.435,0,0,1-3.274-5.508,9.611,9.611,0,0,1,.408-6.86,6.877,6.877,0,0,1,10.159-2.841,6.88,6.88,0,0,1,10.16,2.837,9.556,9.556,0,0,1,.369,6.891,14.61,14.61,0,0,1-3.264,5.51,26.756,26.756,0,0,1-3.1,2.857l-.058.052a.774.774,0,0,1-1.106-.229l0,0a.9.9,0,0,1-.141-.646.859.859,0,0,1,.33-.558,26.178,26.178,0,0,0,2.914-2.692,12.759,12.759,0,0,0,2.915-4.828,7.674,7.674,0,0,0-.33-5.55,5.307,5.307,0,0,0-8.216-1.881.772.772,0,0,1-.971,0,5.347,5.347,0,0,0-8.244,1.871,7.743,7.743,0,0,0-.311,5.53,12.808,12.808,0,0,0,2.915,4.822,36.661,36.661,0,0,0,6.333,5.2.905.905,0,0,1,.316.969.827.827,0,0,1-.763.621h0A.751.751,0,0,1,230.322,770.847Zm5.976-13.512a2.268,2.268,0,0,0-1.5-2.081.9.9,0,0,1-.342-1.013.817.817,0,0,1,.834-.592,3.977,3.977,0,0,1,2.613,3.481.9.9,0,0,1-.163.635.791.791,0,0,1-.647.328A.838.838,0,0,1,236.3,757.335Z" fill="#b7b7b7"/>
  </g>
</svg>
