<svg xmlns="http://www.w3.org/2000/svg" width="41.291" height="41.249" viewBox="0 0 41.291 41.249">
  <g id="Group_138" data-name="Group 138" transform="translate(4406.267 -695.878)">
    <g id="Group_152" data-name="Group 152" transform="translate(-4406.267 695.878)">
      <path id="Path_304" data-name="Path 304" d="M-4601.7-2136.087c-.269-.252-.523-.468-.751-.709a.656.656,0,0,1-.032-.965.653.653,0,0,1,.964.024c.208.2.386.431.6.678l1.023-1.265a6.319,6.319,0,0,1-.581-.492.648.648,0,0,1-.022-.934.648.648,0,0,1,.962.007,3.423,3.423,0,0,1,.365.516c.343-.424.582-.726.828-1.021a.685.685,0,0,1,1.135-.074q1.817,1.8,3.615,3.619a.693.693,0,0,1-.068,1.14c-.284.243-.575.478-.861.717-.009.007-.009.024.017-.054a7.968,7.968,0,0,1,.447,1.009c.033.112-.1.331-.216.418-.648.485-.952-.145-1.38-.476l-1.171.949c.211.2.412.361.585.551a.657.657,0,0,1,.025.936.649.649,0,0,1-.963,0c-.218-.208-.4-.454-.615-.7-.611.493-1.152.921-1.684,1.361a.885.885,0,0,1-.84.222c-.109-.027-.291.093-.392.193q-4.474,4.465-8.937,8.941l-5.406,5.416a1.331,1.331,0,0,0-.1,1.926,1.327,1.327,0,0,0,1.9,0,1.986,1.986,0,0,1,2.919.146,2.058,2.058,0,0,1-.359,2.92,4.7,4.7,0,0,1-2.524,1.249c-.437.054-.865.185-1.3.276a1.428,1.428,0,0,0-1.217,1.328,11.48,11.48,0,0,1-5.381,8.076,5.47,5.47,0,0,1-5.842-.045,19.547,19.547,0,0,1-5.242-4.557,11.145,11.145,0,0,1-1.954-3.073,5.464,5.464,0,0,1,.37-5.105,11.3,11.3,0,0,1,5.524-4.6,15.977,15.977,0,0,1,2.623-.743,1.379,1.379,0,0,0,1.191-1.1c.171-.742.335-1.486.487-2.233a2.646,2.646,0,0,1,.75-1.405c.908-.9,1.8-1.8,2.706-2.705a1.989,1.989,0,0,1,2.891-.184,2.011,2.011,0,0,1,.039,2.9,1.25,1.25,0,0,0-.236,1.526,1.863,1.863,0,0,0,1.582.747.725.725,0,0,0,.3-.209q6.215-6.253,12.422-12.514a1.506,1.506,0,0,0,.207-.421,2.793,2.793,0,0,1,.251-.511C-4602.63-2134.949-4602.189-2135.482-4601.7-2136.087Zm-15.572,16.568c-.208-.1-.3-.147-.4-.192a2.563,2.563,0,0,1-.913-4.171c.338-.394.365-.748.079-1.028s-.69-.243-1.06.125c-.894.89-1.794,1.775-2.667,2.685a1.754,1.754,0,0,0-.4.747c-.192.736-.336,1.486-.5,2.23a2.686,2.686,0,0,1-2.22,2.139,10.384,10.384,0,0,0-6.754,3.94,4.452,4.452,0,0,0-.442,5.483,15.7,15.7,0,0,0,2.864,3.546,14.451,14.451,0,0,0,3.612,2.771,4.231,4.231,0,0,0,4.566-.227,10.268,10.268,0,0,0,4.458-6.978,2.733,2.733,0,0,1,2.19-2.407c.337-.077.674-.159,1.015-.214a3.943,3.943,0,0,0,2.3-1.045c.35-.354.443-.752.175-1.055s-.637-.291-1.024.036a2.634,2.634,0,0,1-3.083.394,2.619,2.619,0,0,1-1.326-2.772.572.572,0,0,0-.212-.572c-.451-.41-.885-.839-1.322-1.265a.684.684,0,0,1-.022-1.143C-4618.034-2118.827-4617.681-2119.139-4617.275-2119.519Zm15.569-14.441,1.766,1.765,4.884-3.955-2.7-2.706Zm-15.286,16.063.891.852,2.334-2.336-.831-.888Zm10.372-10.366-1.686,1.62.923.95,1.665-1.667Zm-2.647,2.679-1.624,1.607.813.934,1.691-1.686Zm-3.5,5.209,1.64-1.623-.838-.9-1.646,1.626Zm9.347-9.259-.959-1-1.3,1.279,1.006,1.024c.387-.4.792-.816,1.2-1.234A.5.5,0,0,0-4603.417-2129.634Zm1.034-2.988-1.013.958.945.939,1.01-.959Z" transform="translate(4634.618 2140.589)" fill="#00bbde"/>
      <path id="Path_305" data-name="Path 305" d="M-4563.8-1897.127a2.523,2.523,0,0,1,.54.312q1.834,1.812,3.645,3.647a.663.663,0,0,1,0,1.057q-.632.66-1.292,1.295a.659.659,0,0,1-1.054,0q-1.83-1.816-3.644-3.648a.677.677,0,0,1,0-1.06c.424-.439.853-.872,1.3-1.291A2.931,2.931,0,0,1-4563.8-1897.127Zm0,1.706-.413.378,2.778,2.763.423-.321Z" transform="translate(4573.49 1924.15)" fill="#00bbde"/>
      <path id="Path_306" data-name="Path 306" d="M-4527.025-1924.541a3.034,3.034,0,0,1-.316.511c-.418.443-.85.874-1.29,1.3a.672.672,0,0,1-1.084-.022q-1.8-1.789-3.584-3.589a.684.684,0,0,1-.009-1.117c.416-.427.835-.85,1.264-1.265a.675.675,0,0,1,1.057-.005q1.829,1.816,3.639,3.652A2.705,2.705,0,0,1-4527.025-1924.541Zm-1.7.048-2.826-2.852-.348.35,2.767,2.783Z" transform="translate(4544.806 1952.471)" fill="#00bbde"/>
      <path id="Path_307" data-name="Path 307" d="M-4586.442-1863.477a3.242,3.242,0,0,1,.553.343q1.832,1.813,3.646,3.644a.665.665,0,0,1,.073,1,.675.675,0,0,1-1.022-.072q-1.811-1.8-3.613-3.618a.62.62,0,0,1-.2-.781A2.633,2.633,0,0,1-4586.442-1863.477Z" transform="translate(4592.353 1894.235)" fill="#00bbde"/>
      <path id="Path_308" data-name="Path 308" d="M-4535.526-1810.344a.687.687,0,0,1-.684-.647.657.657,0,0,1,.644-.674.642.642,0,0,1,.676.635A.666.666,0,0,1-4535.526-1810.344Z" transform="translate(4547.133 1848.174)" fill="#00bbde"/>
      <path id="Path_309" data-name="Path 309" d="M-4510.128-1837.143a.647.647,0,0,1,.659.655.666.666,0,0,1-.655.668.687.687,0,0,1-.667-.665A.661.661,0,0,1-4510.128-1837.143Z" transform="translate(4524.535 1870.824)" fill="#00bbde"/>
      <path id="Path_310" data-name="Path 310" d="M-4514.307-1816.012a.664.664,0,0,1,.667.652.652.652,0,0,1-.641.673.655.655,0,0,1-.669-.646A.668.668,0,0,1-4514.307-1816.012Z" transform="translate(4528.232 1852.039)" fill="#00bbde"/>
    </g>
  </g>
</svg>
