<svg xmlns="http://www.w3.org/2000/svg" width="22.012" height="22.039" viewBox="0 0 22.012 22.039">
  <g id="Home" transform="translate(-45.99 -748.972)">
    <path id="Home-2" data-name="Home" d="M55.27,771.01H50.584a4.489,4.489,0,0,1-4.594-4.358V757.8a3.3,3.3,0,0,1,1.375-2.609l.851-.6a.956.956,0,0,1,1,.151.839.839,0,0,1,.054,1.229l-.82.581a1.6,1.6,0,0,0-.626,1.246v8.839a2.7,2.7,0,0,0,2.761,2.609H55.27v.02h.066a.87.87,0,1,1-.032,1.739ZM63.4,771H61.351a2.171,2.171,0,0,1-2.226-2.111v-4a.571.571,0,0,0-.586-.555H55.463a.569.569,0,0,0-.571.57v1.527c0,.02,0,.041,0,.062a.918.918,0,0,1-1.833-.062V764.9a2.374,2.374,0,0,1,2.434-2.309H58.55a2.373,2.373,0,0,1,2.425,2.309v4a.377.377,0,0,0,.387.366h2.087a2.682,2.682,0,0,0,2.75-2.609v-8.849a1.6,1.6,0,0,0-.652-1.255l-7.039-5.323a2.507,2.507,0,0,0-3.056,0l-2.261,1.6a.972.972,0,0,1-1.248-.2.858.858,0,0,1,.158-1.247l2.232-1.533a4.409,4.409,0,0,1,5.3,0l7.04,5.319A3.325,3.325,0,0,1,68,757.783L68,766.643v0A4.482,4.482,0,0,1,63.4,771Z" fill="#00bbde"/>
  </g>
</svg>
