<svg xmlns="http://www.w3.org/2000/svg" width="46.083" height="21.556" viewBox="0 0 46.083 21.556">
  <g id="Group_153" data-name="Group 153" transform="translate(3201.415 266.248)">
    <path id="Path_311" data-name="Path 311" d="M-3155.332-247.029c-.075.191-.141.387-.226.573a2.832,2.832,0,0,1-2.569,1.741c-.179.012-.36.005-.54.005q-19.571,0-39.143.018c-1.787,0-3.054-.556-3.6-2.337v-16.89c.063-.164.121-.331.19-.492a2.808,2.808,0,0,1,2.56-1.817c.478-.032.96-.019,1.439-.007s.775.292.76.7c-.014.391-.295.631-.766.64-.42.008-.84-.006-1.26,0a1.494,1.494,0,0,0-1.572,1.59q0,7.815,0,15.631a1.5,1.5,0,0,0,1.6,1.61c.193,0,.387,0,.654,0v-.541q0-4.312,0-8.624a2.145,2.145,0,0,1,2.368-2.367q14.872,0,29.745,0a2.567,2.567,0,0,1,.4.021.621.621,0,0,1,.574.643.619.619,0,0,1-.595.666,4.929,4.929,0,0,1-.584.016h-29.25c-.165,0-.331-.007-.495,0a.764.764,0,0,0-.812.826q-.01,4.581,0,9.163a1.014,1.014,0,0,0,.031.16h1.5v-.5q0-3.571,0-7.142a1.672,1.672,0,0,1,.027-.446.63.63,0,0,1,.694-.513.62.62,0,0,1,.62.594,3.091,3.091,0,0,1,.008.4q0,3.548,0,7.1v.51h1.535v-.52q0-3.571,0-7.142a1.6,1.6,0,0,1,.067-.528.6.6,0,0,1,.714-.409.607.607,0,0,1,.555.559,3.047,3.047,0,0,1,.012.448q0,3.526,0,7.052v.529h1.535v-.529q0-3.548,0-7.1a1.707,1.707,0,0,1,.074-.572.6.6,0,0,1,.681-.394.6.6,0,0,1,.574.538,2.683,2.683,0,0,1,.016.448q0,3.548,0,7.1v.516h1.511c.008-.17.024-.342.024-.514q0-3.548,0-7.1a1.962,1.962,0,0,1,.052-.532.6.6,0,0,1,.683-.458.6.6,0,0,1,.6.563,3.226,3.226,0,0,1,.014.448q0,3.526,0,7.052v.529h1.538v-.533q0-3.526,0-7.052a2.184,2.184,0,0,1,.046-.534.6.6,0,0,1,.671-.475.6.6,0,0,1,.612.548,3.279,3.279,0,0,1,.02.493q0,3.5,0,7.007v.557h1.512c.009-.182.026-.355.026-.528q0-3.5,0-7.007a3.278,3.278,0,0,1,.02-.493.613.613,0,0,1,.679-.576.6.6,0,0,1,.632.577,3.769,3.769,0,0,1,.018.493q0,3.481,0,6.962v.566h1.513c.009-.158.026-.329.026-.5q0-3.526,0-7.052a2.908,2.908,0,0,1,.03-.537.593.593,0,0,1,.6-.509.6.6,0,0,1,.674.471,2.127,2.127,0,0,1,.045.534q0,3.548,0,7.1v.506h1.539v-.54q0-3.526,0-7.052a2.85,2.85,0,0,1,.023-.492.6.6,0,0,1,.588-.522.6.6,0,0,1,.684.456,2.2,2.2,0,0,1,.052.577q0,3.5,0,7.007v.562h1.538v-.518q0-3.526,0-7.052a3.126,3.126,0,0,1,.018-.493.6.6,0,0,1,.573-.537.6.6,0,0,1,.7.436,2.01,2.01,0,0,1,.059.575q.006,3.526,0,7.052v.528h1.536v-.488q0-3.526,0-7.052c0-.15-.006-.3.009-.449a.609.609,0,0,1,.606-.6.616.616,0,0,1,.7.5,1.968,1.968,0,0,1,.036.49q0,3.548,0,7.1v.514h1.535v-.517q0-3.5,0-7.007c0-.135-.005-.27,0-.4a.643.643,0,0,1,.631-.679.657.657,0,0,1,.707.655c.024.388.009.778.009,1.167q0,3.144,0,6.288v.5h1.534v-.494q0-3.571,0-7.142a2.525,2.525,0,0,1,.01-.4.618.618,0,0,1,.6-.569.608.608,0,0,1,.689.451,1.83,1.83,0,0,1,.052.531q0,3.549,0,7.1v.521h1.513c.007-.162.02-.308.02-.453q0-4.312,0-8.624c0-.833-.237-1.071-1.065-1.076-.36,0-.72.009-1.08,0-.47-.018-.738-.273-.735-.672s.27-.65.745-.666.931-.021,1.395,0a2.1,2.1,0,0,1,2.088,2.189c.008,2.92,0,5.839,0,8.759v.548c.747.069,1.453.094,1.912-.555a1.845,1.845,0,0,0,.328-.992q.03-7.838.012-15.676a1.5,1.5,0,0,0-1.538-1.58c-.15-.006-.3,0-.45,0h-35.1c-.18,0-.361.008-.54-.009a.622.622,0,0,1-.6-.616.61.61,0,0,1,.478-.673,1.815,1.815,0,0,1,.488-.048q17.775,0,35.55,0a2.845,2.845,0,0,1,2.99,2.213.424.424,0,0,0,.075.105Z" transform="translate(0 0)" fill="#00bbde"/>
    <path id="Path_312" data-name="Path 312" d="M-3040.945-237.979c-.9,0-1.8.005-2.7,0a1.408,1.408,0,0,1-1.545-1.525c-.007-.418-.013-.837,0-1.255a1.4,1.4,0,0,1,1.455-1.442q2.83-.025,5.66,0a1.394,1.394,0,0,1,1.453,1.443c.016.433.013.867,0,1.3a1.389,1.389,0,0,1-1.5,1.478C-3039.058-237.972-3040-237.98-3040.945-237.979Zm2.981-1.369c0-.457.017-.86-.013-1.259a.371.371,0,0,0-.269-.242q-2.654-.022-5.307,0c-.094,0-.262.124-.267.2-.026.427-.012.857-.012,1.305Z" transform="translate(-137.475 -21.149)" fill="#00bbde"/>
    <path id="Path_313" data-name="Path 313" d="M-2958.736-237.9a2.089,2.089,0,0,1-2.105-2.107,2.112,2.112,0,0,1,2.11-2.114,2.141,2.141,0,0,1,2.119,2.119A2.113,2.113,0,0,1-2958.736-237.9Zm.77-2.119a.786.786,0,0,0-.792-.749.76.76,0,0,0-.729.8.734.734,0,0,0,.757.718A.762.762,0,0,0-2957.966-240.024Z" transform="translate(-211.703 -21.227)" fill="#00bbde"/>
    <path id="Path_314" data-name="Path 314" d="M-2910.636-237.908a2.092,2.092,0,0,1-2.118-2.1,2.116,2.116,0,0,1,2.1-2.125,2.142,2.142,0,0,1,2.129,2.108A2.114,2.114,0,0,1-2910.636-237.908Zm.759-2.126a.784.784,0,0,0-.8-.742.763.763,0,0,0-.725.806.74.74,0,0,0,.766.711A.765.765,0,0,0-2909.877-240.034Z" transform="translate(-254.02 -21.223)" fill="#00bbde"/>
    <path id="Path_315" data-name="Path 315" d="M-3089-240.012a2.089,2.089,0,0,1-2.106,2.107,2.118,2.118,0,0,1-2.123-2.1,2.14,2.14,0,0,1,2.12-2.118A2.11,2.11,0,0,1-3089-240.012Zm-1.354.022a.76.76,0,0,0-.746-.783.783.783,0,0,0-.775.766.762.762,0,0,0,.735.751A.736.736,0,0,0-3090.358-239.99Z" transform="translate(-95.199 -21.227)" fill="#00bbde"/>
    <path id="Path_316" data-name="Path 316" d="M-3127.848-240.742c-.254,0-.509.015-.763,0a.613.613,0,0,1-.605-.608.577.577,0,0,1,.511-.68,10.6,10.6,0,0,1,1.742,0,.573.573,0,0,1,.515.675.6.6,0,0,1-.592.613c-.267.024-.538,0-.807,0Z" transform="translate(-63.532 -21.275)" fill="#fff"/>
    <path id="Path_317" data-name="Path 317" d="M-3163.9-240.782c-.254,0-.51.016-.763,0a.617.617,0,0,1-.617-.643.586.586,0,0,1,.545-.657,10.458,10.458,0,0,1,1.7.006.582.582,0,0,1,.523.712.61.61,0,0,1-.625.584C-3163.388-240.769-3163.643-240.781-3163.9-240.782Z" transform="translate(-31.801 -21.234)" fill="#fff"/>
    <path id="Path_318" data-name="Path 318" d="M-3163.911-216.79c-.254,0-.509.016-.762,0a.612.612,0,0,1-.605-.607.593.593,0,0,1,.554-.692,10.848,10.848,0,0,1,1.656,0,.589.589,0,0,1,.559.686.615.615,0,0,1-.638.619c-.253.016-.509,0-.763,0Z" transform="translate(-31.797 -42.347)" fill="#00bbde"/>
    <path id="Path_319" data-name="Path 319" d="M-3127.857-216.726c-.254,0-.51.018-.762,0a.609.609,0,0,1-.591-.621.58.58,0,0,1,.528-.668,10.878,10.878,0,0,1,1.742.007.569.569,0,0,1,.5.686.59.59,0,0,1-.564.592c-.281.028-.567.006-.851.006Z" transform="translate(-63.539 -42.413)" fill="#00bbde"/>
    <path id="Path_320" data-name="Path 320" d="M-2863.332-241.406a.665.665,0,0,1-.657.656.658.658,0,0,1-.687-.667.671.671,0,0,1,.652-.666A.689.689,0,0,1-2863.332-241.406Z" transform="translate(-296.328 -21.265)" fill="#fff"/>
    <path id="Path_321" data-name="Path 321" d="M-2863.332-217.4a.668.668,0,0,1-.632.68.657.657,0,0,1-.712-.639.664.664,0,0,1,.626-.686A.683.683,0,0,1-2863.332-217.4Z" transform="translate(-296.328 -42.416)" fill="#fff"/>
  </g>
</svg>
