<svg enable-background="new 0 0 583.45 482.6" viewBox="0 0 583.45 482.6" xmlns="http://www.w3.org/2000/svg" xmlns:xlink="http://www.w3.org/1999/xlink"><clipPath id="a"><path d="m132.25 65.66h220.69v305.24h-220.69z"/></clipPath><g transform="translate(-35.832 -214.36)"><path d="m555.46 346.99c37.61 53.65-10.78 152.45-108.09 220.67s-301.57 20.88-345.77-97.41c-22.93-61.38 112.24-28.65 209.56-96.87s206.69-80.04 244.3-26.39z" fill="#dbccff" opacity=".65"/><path d="m230.75 678.11c-64.79-9.74-103.01-112.9-85.34-230.42s192.78-232.86 308.94-183.32c60.27 25.7-56.62 101.06-74.28 218.58s-84.51 204.89-149.32 195.16z" fill="#ffcce2" opacity=".41"/></g><g clip-path="url(#a)" transform="translate(83.238 33.076)"><path d="m185.4 104.42-12 3.41-2.44-9.7 12-3.41c2.51-.65 5.07.85 5.73 3.36.02.06.03.13.05.19.71 2.61-.76 5.32-3.34 6.15" fill="#59565f"/><path d="m156.51 120.2-7.83-11.01 2.51-2.01 7.83 11z" fill="#662d91"/><path d="m133.6 261.56s20.94 22.17 71.26 28.7l-9.64-25.78-29.13-9.66z" fill="#280017"/><path d="m153.08 257.8v40.01c0 5.65 41.38 47.77 44.26 50.83s0 15.53 0 15.53-1.99 1.18-1.99 6.59h11.73s-2.17-15.3-2.17-19.3-11.49-39.83-17.52-46.24-8.74-3.06-16.16-10.94c0 0 5.31-19.76 5.31-24.24-.01-4.48-23.46-12.24-23.46-12.24" fill="#aa5931"/><path d="m206.05 363.02c-1.11 1.6-2.96 3.78-4.83 3.78a5.8 5.8 0 0 1 -4.04-2.5c-.48.43-1.83 2.01-1.83 6.46h11.73c-.01 0-.52-3.59-1.03-7.74" fill="#231f20"/><path d="m172.93 257.8v40.01c0 5.65 47.29 47.77 50.17 50.83s-3.61 15.53-3.61 15.53a6.447 6.447 0 0 0 -4.28 6.59h11.74s3.32-15.3 3.32-19.3-16.98-39.83-23.02-46.24-8.74-3.06-16.16-10.94c0 0 5.31-19.76 5.31-24.24-.01-4.48-23.47-12.24-23.47-12.24" fill="#aa5931"/><path d="m236.83 123.35c-3.42-3.64-38.55.08-42.3 4.07-3.98 4.24-11.95 37.97-18.37 37.97s-23.79-26.51-25.57-31.85c-1.77-5.34 1.16-11.74 1.16-13.99s.47-12.03-3.07-12.03-7.45 17.24-6.35 26.02c1.11 8.79 31.56 54.36 32.66 54.36s16.07-9.88 22.09-23.53c1.82-4.12 3.94-9.72 6.01-15.52 9.39 4.19 18.47 9.06 27.16 14.57 6.67-14.61 9.45-37.02 6.58-40.07" fill="#aa5931"/><path d="m157.52 102.69s-8.98 4.43-9.7 5.14c-.71.71-.35 2.36-.35 2.36s10.94-5.17 10.05-7.5" fill="#592c13"/><path d="m148.68 110.19s8.05-5.49 9.73-4.52c1.68.96-9.73 6.09-9.73 6.09z" fill="#592c13"/><path d="m149.49 112.34s8.14-2.92 8.09-4.09-9.54 2.87-9.54 2.87z" fill="#592c13"/><path d="m150.93 116.3s2.81-4.54 4.18-4.54-3.59 9.33-3.59 9.33z" fill="#592c13"/><path d="m230.25 163.42c-3.13-6.81-2.29-16.25-6.55-19.56-6.24-4.84-16.62-5.21-25.77-5.21-.24.27-5.29 6.48-5.46 6.66-3.1 3.29 0 17.89 0 22.59 0 4.71-12.4 28.71-12.4 28.71s-35.41 64.95-46.47 64.95c0 0 46.25 2.12 71.26 28.71 0 0 18.71-47.64 9.74-82.84 0 0-1.1-22.36 8.85-32.95 2.82-3.31 5.11-7.04 6.8-11.06" fill="#333"/><path d="m218.84 363.94s1.65 3.13 3.21 3.13 5.67-16.83 7.98-16.83 2.83 4.98 2.24 6.52-1.57 13.99-1.57 13.99h-1.9s.9-10.25.18-10.25l-2.05 10.25h-11.73c-.01 0-1.94-3.61 3.64-6.81" fill="#231f20"/><path d="m295.42 313.14-142.93-196.45 5.37-4.36 139.44 198.85z" fill="#42210b"/><path d="m272.61 368.9-2.72-1.34 25.03-57.63 57.74-6.32.28 2.84-53.28 10.53z" fill="#42210b"/><path d="m143.51 124.27c-.17 0-.34 0-.5-.02-1.5-.08-2.9-.81-3.82-2-4.49-5.7 5.15-12.86 5.57-13.16l1.13 1.26c-.09.06-8.75 6.49-5.23 10.96.6.79 1.51 1.27 2.5 1.32 4.52.34 11.5-5.62 13.53-7.45 2.45-2.68 4.42-5.78 5.81-9.14l2.58-.07c-.04.08-3.62 7.2-7.11 10.35-2.7 2.44-9.37 7.95-14.46 7.95" fill="#381a3f"/><path d="m175.43 104.15-42.15 11.98-1.03-4.09 42.16-11.99z" fill="#42210b"/><path d="m177.33 107.89-11.36 3.23-3.04-12.08 11.36-3.23z" fill="#42210b"/><path d="m168.28 110.46-2.31.66-3.04-12.08 2.31-.66z" fill="#381a3f"/><path d="m235.21 122.54c-5.31 0-25.47 25.43-33.4 29.77s-39.21-15.88-41.4-22.42c-.26-.77-.53-1.58-.8-2.42.24-4.56 1.55-13.82.21-14.2-1.76-.5-1.74 6.87-2.61 4.64s1.14-13.64 0-13.64-1.71 7.98-1.71 7.98l-.89 4.43c-.03-.03-.07-.06-.1-.09l-.09-4.63s2.18-7.83.35-7.83-2.4 12.05-2.96 11.46-.23-10.84-1.26-9.74c-.87.91-.27 11.83-.06 15.23-.1 5.67 3.16 14.2 5.09 15.46 2.53 1.65 44.93 40.24 55.33 36.31s25.04-22.6 25.04-22.6c6.19-6.61 4.57-27.71-.74-27.71" fill="#aa5931"/><g fill="#381a3f"><path d="m176.48 98.38c-.02.24-.22.42-.46.41a.443.443 0 0 1 -.41-.46c.01-.23.2-.41.43-.41.25.01.44.22.44.46"/><path d="m177.98 99.88c-.01.18-.16.31-.34.3a.317.317 0 0 1 -.3-.34.32.32 0 0 1 .64.04c0-.01 0-.01 0 0"/><path d="m177.87 97.75c0 .21-.12.38-.27.38s-.27-.17-.27-.38.12-.38.27-.38.27.17.27.38"/><path d="m179.13 98.44c0 .17-.09.3-.2.3s-.2-.14-.2-.3c0-.17.09-.3.2-.3s.2.13.2.3"/><path d="m179.85 97.15c-.01.09-.08.16-.17.15s-.16-.08-.15-.17c0-.09.08-.15.16-.15.09.01.16.08.16.17"/><path d="m180.03 98.34c0 .05-.05.09-.1.09s-.09-.05-.09-.1.04-.09.09-.09c.06 0 .11.04.1.1"/></g><path d="m212.66 68.94s-3.41-1.6-9.05 5.29 1.59 8.56 2.27 18.91 2.31 14.99 11.34 20.14 12.16-.95 21.76.68c9.6 1.62-1.27 6.09 4.56 11.48 5.82 5.39 14.36 7.17 15.02 7.78s-11.42-7-11.65-10.53 5.15-3.27 4.83-8.14-6.24-6.02-6.24-6.02a9.941 9.941 0 0 1 9.62.73c5.06 3.2 3.05 3.09 5.77 9.43s7.34 2.68 12.57 4.81 7.09 11.22 7.09 11.22 1.98-11.23-3.84-16.61-7.69-1.68-9.84-7.87-.4-9.75-7.56-13.78-12.13 1.75-12.35-1.66c-.22-3.42 6.31-2.32 6.31-2.32s1.07-4.44-5.47-6.66c-6.54-2.23-7.01-7.3-7.21-10.28-.19-2.99-16.83-15.84-27.95-6.61"/><path d="m207.19 70.65a22.104 22.104 0 0 0 -3.59 3.58c-5.64 6.9 1.59 8.56 2.27 18.91s2.31 14.99 11.34 20.14c6.45 3.67 9.89 1.62 14.82.73-12.18-9.27 4.57-16.57-1.8-27.68a31.174 31.174 0 0 0 -23.04-15.68" fill="#232323"/><path d="m223.23 101.15-11.38 5.14-4.44 16.31s-9.22 18.85 12.9 1.54c.88-.69 2.93-22.99 2.92-22.99" fill="#aa5931"/><path d="m223.23 101.15-11.38 5.14-1.06 3.9c4.62-.99 8.86-3.29 12.22-6.61.27-2.77.22-2.42.22-2.43" fill="#43210e"/><path d="m211.23 71.04c-3.61 1.81-7.35 5.12-9.9 13.33s-1.87 16.98.38 21.87 16.33-.04 21.52-5.09c5.2-5.05 3.37-37.81-12-30.11" fill="#aa5931"/><path d="m213.5 70.17s-3.89 7.68 2.05 9.45 9.75 3.32 13.24 13.95 3.23 12.78 15.68 12.78 13.84 4.64 14.85 7.78 4.99-7.73-3.68-13.52-18.3.32-18.3-11.01 4.12-8.43-5.56-13.39-10.49-11.4-18.3-6.04" fill="#232323"/></g></svg>