<?xml version="1.0" encoding="iso-8859-1"?>
<!-- Generator: Adobe Illustrator 19.0.0, SVG Export Plug-In . SVG Version: 6.00 Build 0)  -->
<svg version="1.1" id="Layer_1" xmlns="http://www.w3.org/2000/svg" xmlns:xlink="http://www.w3.org/1999/xlink" x="0px" y="0px"
	 viewBox="0 0 512 512" style="enable-background:new 0 0 512 512;" xml:space="preserve">
<g>
	<g>
		<path d="M502.674,126.449c5.15,0,9.326-4.175,9.326-9.326V68.566c0-5.15-4.175-9.325-9.326-9.325H9.326
			C4.175,59.241,0,63.416,0,68.566v48.557c0,5.15,4.175,9.326,9.326,9.326h10.098v259.1H9.326c-5.15,0-9.326,4.175-9.326,9.326
			v48.559c0,5.15,4.175,9.326,9.326,9.326h493.349c5.15,0,9.326-4.175,9.326-9.326v-48.559c0-5.15-4.175-9.326-9.326-9.326h-10.098
			v-259.1H502.674z M493.349,404.201v29.908H18.651v-29.908H493.349z M418.123,255.999l55.803-102.305v204.609L418.123,255.999z
			 M467.542,385.55H347.459l60.042-110.076L467.542,385.55z M407.501,236.525l-60.041-110.076h120.083L407.501,236.525z
			 M396.878,255.999L331.75,375.401l-65.128-119.402l65.128-119.402L396.878,255.999z M316.042,385.55H195.96l60.04-110.076
			L316.042,385.55z M256.001,236.525l-60.041-110.076h120.082L256.001,236.525z M245.378,255.999L180.25,375.401l-65.128-119.402
			l65.128-119.402L245.378,255.999z M164.541,385.55H44.458l60.042-110.076L164.541,385.55z M104.499,236.525L44.458,126.449
			h120.083L104.499,236.525z M93.877,255.999L38.074,358.304V153.695L93.877,255.999z M18.651,107.798V77.892h474.698v29.906H18.651
			z"/>
	</g>
</g>
<g>
</g>
<g>
</g>
<g>
</g>
<g>
</g>
<g>
</g>
<g>
</g>
<g>
</g>
<g>
</g>
<g>
</g>
<g>
</g>
<g>
</g>
<g>
</g>
<g>
</g>
<g>
</g>
<g>
</g>
</svg>
