<?xml version="1.0" encoding="iso-8859-1"?>
<!-- Generator: Adobe Illustrator 19.0.0, SVG Export Plug-In . SVG Version: 6.00 Build 0)  -->
<svg version="1.1" id="Capa_1" xmlns="http://www.w3.org/2000/svg" xmlns:xlink="http://www.w3.org/1999/xlink" x="0px" y="0px"
	 viewBox="0 0 470.544 470.544" style="enable-background:new 0 0 470.544 470.544;" xml:space="preserve">
<g>
	<path d="M145.409,274.928c2.93,2.928,7.678,2.928,10.607,0c2.929-2.93,2.929-7.678,0-10.607
		c-3.759-3.757-11.847-9.205-23.813-3.463c-6.341,3.044-12.431,8.507-18.32,13.791c-5.104,4.579-10.384,9.315-14.793,11.432
		c-3.87,1.857-5.223,0.945-6.714-0.546c-2.929-2.929-7.678-2.93-10.606-0.001c-2.93,2.929-2.93,7.678-0.001,10.606
		c2.582,2.582,7.209,5.962,13.732,5.962c2.971,0,6.335-0.701,10.079-2.498c6.341-3.043,12.431-8.507,18.319-13.79
		c5.105-4.58,10.385-9.316,14.794-11.433C142.565,272.523,143.918,273.436,145.409,274.928z"/>
	<path d="M195.613,314.525c-2.929,2.93-2.929,7.678,0,10.607c1.491,1.491,2.403,2.846,0.547,6.715
		c-2.116,4.409-6.853,9.688-11.433,14.794c-5.283,5.889-10.747,11.979-13.79,18.319c-5.741,11.964-0.295,20.054,3.464,23.812
		c1.464,1.464,3.384,2.196,5.303,2.196s3.839-0.732,5.304-2.197c2.929-2.929,2.929-7.678-0.001-10.606
		c-1.49-1.491-2.402-2.845-0.546-6.714c2.116-4.409,6.853-9.688,11.432-14.793c5.284-5.89,10.747-11.979,13.791-18.32
		c5.741-11.964,0.295-20.055-3.463-23.813C203.291,311.597,198.543,311.597,195.613,314.525z"/>
	<path d="M176.46,335.801c2.929-2.93,2.929-7.678,0-10.607l-31.112-31.112c-2.93-2.928-7.678-2.928-10.607,0
		c-2.929,2.93-2.929,7.678,0,10.607l31.112,31.112c1.465,1.464,3.385,2.196,5.304,2.196S174.995,337.265,176.46,335.801z"/>
	<path d="M468.346,30.48L440.062,2.196c-2.93-2.928-7.678-2.928-10.607,0l-8.838,8.838l-1.768-1.768
		c-2.93-2.928-7.678-2.928-10.607,0c-2.929,2.93-2.929,7.678,0,10.607l1.768,1.768l-8.839,8.839c-2.266,2.267-2.771,5.621-1.53,8.38
		l-11.92,11.404l-16.026-16.026c-2.929-2.93-7.678-2.929-10.606-0.001c-2.93,2.929-2.93,7.678-0.001,10.606l15.792,15.792
		l-74.353,71.132c-18.062-11.117-38.737-16.7-60.203-16.172c-23.614,0.588-45.929,8.519-64.53,22.935
		c-2.183,1.691-3.259,4.445-2.802,7.169c4.246,25.298-4.019,51.201-22.109,69.292c-23.046,23.048-58.549,29.629-88.341,16.379
		c-2.367-1.054-5.112-0.81-7.257,0.645c-6.828,4.63-13.263,9.95-19.125,15.813c-48.091,48.092-50.719,124.681-7.904,175.9
		c0.027,0.033,0.054,0.065,0.081,0.097c2.461,2.938,5.063,5.798,7.823,8.559c25.441,25.44,58.859,38.161,92.278,38.161
		c33.418,0,66.836-12.721,92.277-38.161c5.865-5.865,11.185-12.3,15.813-19.125c1.454-2.146,1.698-4.889,0.645-7.257
		c-13.25-29.792-6.668-65.294,16.38-88.341c18.089-18.09,43.993-26.355,69.29-22.108c2.726,0.455,5.479-0.62,7.17-2.802
		c14.416-18.602,22.347-40.916,22.935-64.53c0.533-21.462-5.054-42.142-16.172-60.204l78.738-82.304l15.793,15.792
		c1.464,1.464,3.384,2.196,5.303,2.196s3.839-0.732,5.304-2.197c2.929-2.929,2.929-7.678-0.001-10.606l-16.027-16.026l3.798-3.97
		c0.977,0.439,2.025,0.667,3.076,0.667c1.919,0,3.839-0.732,5.304-2.196l8.839-8.839l1.768,1.768
		c1.465,1.464,3.385,2.196,5.304,2.196s3.839-0.732,5.304-2.196c2.929-2.93,2.929-7.678,0-10.607l-1.768-1.768l8.838-8.838
		C471.275,38.158,471.275,33.41,468.346,30.48z M395.84,86.668l-11.966-11.966l26.019-24.892l10.839,10.839L395.84,86.668z
		 M48.766,421.776c-0.994-0.995-1.959-2.007-2.91-3.029l53.381-66.707l19.264,19.264l-66.707,53.381
		C50.773,423.735,49.76,422.771,48.766,421.776z M322.71,280.101c-28.589-3.353-57.353,6.538-77.767,26.952
		c-13.751,13.751-22.8,31.109-26.168,50.196c-3.039,17.219-1.298,34.714,5.027,50.869c-3.527,4.83-7.45,9.411-11.696,13.657
		c-40.344,40.347-103.349,44.54-148.412,12.598l70.72-56.593c1.666-1.332,2.686-3.312,2.803-5.441
		c0.118-2.13-0.677-4.209-2.185-5.718l-31.112-31.112c-1.509-1.508-3.582-2.299-5.718-2.185c-2.13,0.117-4.109,1.137-5.441,2.803
		l-56.593,70.72C4.227,361.783,8.422,298.778,48.766,258.434c4.244-4.244,8.825-8.167,13.657-11.695
		c16.156,6.326,33.654,8.065,50.869,5.028c19.088-3.369,36.445-12.418,50.196-26.169c20.414-20.414,30.308-49.186,26.953-77.767
		c29.621-20.823,69.353-22.731,100.808-5.276L176.287,252.538c-1.458,1.395-2.293,3.318-2.315,5.336
		c-0.021,2.018,0.77,3.959,2.196,5.387l31.113,31.113c1.408,1.407,3.315,2.196,5.304,2.196h0.083
		c2.018-0.022,3.941-0.857,5.336-2.315l47.966-50.138c2.864-2.993,2.759-7.74-0.234-10.604c-2.993-2.864-7.741-2.76-10.604,0.234
		l-42.666,44.597l-20.269-20.269l116.384-111.343c0.022-0.021,64.451-61.659,64.451-61.659l12.436,12.436l-61.632,64.423
		c-0.033,0.035-47.966,50.138-47.966,50.138c-2.864,2.993-2.759,7.74,0.234,10.604c1.453,1.391,3.319,2.081,5.184,2.081
		c1.975,0,3.947-0.775,5.42-2.315l41.278-43.147C345.442,210.748,343.534,250.48,322.71,280.101z M434.758,53.461L417.08,35.784
		l8.83-8.83c0.019-0.02,8.848-8.848,8.848-8.848l17.678,17.678l-8.829,8.829C443.588,44.632,434.758,53.461,434.758,53.461z"/>
</g>
<g>
</g>
<g>
</g>
<g>
</g>
<g>
</g>
<g>
</g>
<g>
</g>
<g>
</g>
<g>
</g>
<g>
</g>
<g>
</g>
<g>
</g>
<g>
</g>
<g>
</g>
<g>
</g>
<g>
</g>
</svg>
