<svg xmlns="http://www.w3.org/2000/svg" width="28.358" height="33.431" viewBox="0 0 28.358 33.431">
  <g id="Group_154" data-name="Group 154" transform="translate(2992.922 2297.03)">
    <path id="Path_322" data-name="Path 322" d="M-2981.558-2263.6a6,6,0,0,1-1.942-.731,6.89,6.89,0,0,1-1.958-1.851c-.228-.319-.439-.651-.686-.954a3.428,3.428,0,0,0-.627-.613,1.127,1.127,0,0,0-1.7.192c-.331.375-.615.793-.954,1.159a1.965,1.965,0,0,1-2.517.448,2,2,0,0,1-.687-2.762c.493-.845,1.009-1.678,1.535-2.5a.318.318,0,0,0-.067-.489c-.321-.295-.621-.612-.929-.92-.449-.449-.454-.569-.042-1.069l6.75-8.2q2.752-3.342,5.508-6.68a.824.824,0,0,0,.2-.617,7.239,7.239,0,0,1,.99-4.062.5.5,0,0,0,.053-.478,1.045,1.045,0,0,1,.221-1.124c.3-.318.6-.629.927-.921a1.128,1.128,0,0,1,1.13-.23.646.646,0,0,0,.443-.038,7.878,7.878,0,0,1,3.158-.982c.043,0,.087-.007.13-.009.353-.014.585.158.609.449s-.2.468-.536.534c-.681.133-1.359.286-2.03.464a4.432,4.432,0,0,0-.735.337l8.938,8.916a5.824,5.824,0,0,0,.779-2.417,6.526,6.526,0,0,0-4.749-7.068c-.383-.12-.555-.369-.457-.66s.358-.391.76-.277a7.539,7.539,0,0,1,4.49,10.97.564.564,0,0,0-.064.537,1.027,1.027,0,0,1-.23,1.093c-.3.32-.6.631-.924.924a1.13,1.13,0,0,1-1.13.236.644.644,0,0,0-.445.03,7.548,7.548,0,0,1-4.1,1,.88.88,0,0,0-.646.225q-2.785,2.3-5.581,4.584c-.051.041-.1.084-.152.124-.3.232-.588.222-.775-.024s-.127-.5.157-.735q2.55-2.1,5.1-4.189c.075-.061.147-.125.252-.216a7.719,7.719,0,0,1-5.365-5.36l-10.376,12.6,3.134,3.111,2.627-2.153c.943-.774,1.88-1.556,2.837-2.312a.773.773,0,0,1,.583-.147c.382.1.418.57.078.854-.769.643-1.547,1.274-2.322,1.91l-5.054,4.145c-.516.424-.646.42-1.119-.057-.375-.378-.745-.761-1.107-1.131-.058.025-.084.028-.093.042-.52.842-1.047,1.68-1.554,2.531a.945.945,0,0,0,.066,1.077.839.839,0,0,0,.932.4,1.7,1.7,0,0,0,.727-.45c.385-.4.693-.869,1.082-1.263a1.917,1.917,0,0,1,2.4-.377,4.051,4.051,0,0,1,1.025.79,11.163,11.163,0,0,1,.9,1.2,5.979,5.979,0,0,0,1.635,1.58,3.47,3.47,0,0,0,3.211.39,12.825,12.825,0,0,0,3.265-1.892c.979-.727,1.941-1.479,2.927-2.2a4.835,4.835,0,0,1,1.9-.9,1.824,1.824,0,0,1,2.327,1.975,7.7,7.7,0,0,1-1.086,3.352.473.473,0,0,1-.677.179.5.5,0,0,1-.16-.687c.3-.755.6-1.512.867-2.278a1.963,1.963,0,0,0,.076-.71.831.831,0,0,0-1.135-.867,4.748,4.748,0,0,0-1.243.553c-.607.382-1.178.823-1.754,1.252-.533.4-1.049.816-1.582,1.212a10.983,10.983,0,0,1-4.526,2.231Zm12.74-20.259a2.174,2.174,0,0,1-.316-.216q-2.663-2.65-5.32-5.306a1.632,1.632,0,0,1-.222-.238.458.458,0,0,1,.049-.625.459.459,0,0,1,.625-.051,1.62,1.62,0,0,1,.239.221l4.879,4.869c.378.377.761.748,1.13,1.134.166.174.293.185.455,0s.352-.356.53-.533c.3-.3.3-.3,0-.614l-5.341-5.331c-1.441-1.438-2.888-2.871-4.319-4.32-.238-.241-.391-.243-.6.01a4.3,4.3,0,0,1-.508.508c-.2.175-.2.313-.007.506.688.667,1.361,1.349,2.039,2.027.287.287.327.58.116.8s-.515.185-.8-.1c-.426-.421-.848-.846-1.272-1.269-.119-.119-.24-.237-.368-.362a6.526,6.526,0,0,0,1.215,8.043A6.528,6.528,0,0,0-2968.819-2283.857Zm-22.417,10.617,2.82,2.814.859-.709-2.968-2.966Z" transform="translate(0)" fill="#00bbde"/>
    <path id="Path_323" data-name="Path 323" d="M-2878.363-2150.691a2.647,2.647,0,0,1-.27.407q-1.774,1.784-3.56,3.557c-.316.314-.546.308-.867-.01q-.708-.7-1.41-1.408a.511.511,0,0,1-.006-.843q1.777-1.781,3.562-3.555c.316-.314.544-.312.87.007.474.465.947.932,1.408,1.411A2.538,2.538,0,0,1-2878.363-2150.691Zm-3.075,1.765-.768-.826-1.188,1.182.775.823Zm1.751-1.739-.819-.83-.949.918.8.852Z" transform="translate(-98.784 -131.667)" fill="#fff"/>
  </g>
</svg>
